<svg xmlns="http://www.w3.org/2000/svg" viewBox="0 0 192 192">
  <defs>
    <style>
      .favicon-blue {
        fill: #232c65;
      }

      .favicon-white {
        fill: #fff;
      }
    </style>
  </defs>
  <title>Emory University Favicon</title>
  <g>
    <path class="favicon-blue" d="M177.55,5.19,16.76,5.12l-6.62,7c-.08,5-.18,11.31-.23,14.4-.64,49.21,2.71,125.77,82.78,162.8,42.38-19.63,74.43-53.37,82.85-105.68C180.46,53.31,177.51,24.54,177.55,5.19Z"/>
    <g>
      <path class="favicon-white" d="M93.05,185.64C4.3,144.58,14.95,52.9,15,10L172,10.2C172,53.07,181.89,144.77,93.05,185.64ZM15,3,8.2,10.11C8.12,15.24,8,21.68,8,24.85,7.32,75.2,10.74,153.52,92.66,191.41c43.35-20.09,76.15-54.6,84.76-108.12,5-31,2-60.43,2-80.22Z"/>
      <g>
        <path class="favicon-white" d="M59.5,115.53,44.9,131.15c-.48.51-.53,1-.24,1.36a4.9,4.9,0,0,0,1.26,1.13c.39.08.67.25,1.34-.47.28-.31,7.19-7,15.36-14.85a8.39,8.39,0,0,1-1.55-1.06A17,17,0,0,1,59.5,115.53Z"/>
        <path class="favicon-white" d="M63.72,113.75a26.13,26.13,0,0,0,4.22,3.05l-1.44,1.37c-.55.59-2.57-.34-4.53-2.08s-3.1-3.65-2.55-4.25L61,110.4A19.49,19.49,0,0,0,63.72,113.75Z"/>
        <g>
          <path class="favicon-white" d="M135.46,131.06a4.28,4.28,0,0,0,1.35-2.5l1.42.69c.42.45.07,2.1-1.25,3.4s-3.11,1.72-3.53,1.28l-.75-1.54A4.13,4.13,0,0,0,135.46,131.06Z"/>
          <path class="favicon-white" d="M133.31,128.75a4.21,4.21,0,0,0,1.13-1.79l.93.64c.31.32,0,1.36-.94,2.31s-2.27,1.26-2.58.93l-.54-1A5.54,5.54,0,0,0,133.31,128.75Z"/>
        </g>
      </g>
      <path class="favicon-white" d="M137.68,57.06,136,58.54c-2.28.87-7.48-3.09-11.56-6.68-2.73-2.4-8.22-8.44-6.66-10.88l.69-.71c-.49-.29-.92-.55-1.24-.72a3.05,3.05,0,0,0-1.75-.33c-.65.08-1.17.35-1.22.88-.12,1.08.52,2.54,1.38,4.25S119.94,51,126.8,56.49a33.35,33.35,0,0,0,9.32,5c.46.18,2.09.51,2.8-.19s-.08-2-.62-3.19A6.83,6.83,0,0,0,137.68,57.06Z"/>
      <path class="favicon-white" d="M132.85,126.25c-2.56-3-22.9-26.82-26-30.49-3.3-3.92-24.05-28.65-30.91-37.22-8-10-9.48-23.74-9.48-25.4,0-.6,0-1.17,0-1.67,0-.17-.44-.12-.53.07-.37.78-2.78,5.8-10.35,13A58.49,58.49,0,0,1,40.23,54.9c-.12,0-.22.27-.15.32a44.67,44.67,0,0,0,5.39.43c7.1.6,10,2.91,16.51,7C69.44,67.47,87.52,85,91,88.31s38.58,38.46,39.31,39.32c.08.09.55.58.63.63a2.76,2.76,0,0,0,1.33-.56,2.9,2.9,0,0,0,.88-1.14Zm-3.44-1S110,105.54,97.73,92.82C73.51,67.78,62.4,60,56.47,56.88A49.86,49.86,0,0,0,48.86,54c-.52-.28-.62-.68.35-1.55a17.39,17.39,0,0,1,4.92-2.66c.5-.2,2.2.36,3.91,1.1,3.29,1.41,6.07,3.1,13.37,10.36,2.45,2.45,5.19,5.29,8.32,8.62,22,23.38,50.18,55,50.18,55Z"/>
      <path class="favicon-white" d="M63.19,25.26c-.94-.05-3,.72-5.22,1.93A65.46,65.46,0,0,0,38.83,43.7a35.79,35.79,0,0,0-3,4.72c-2.26,4.31.89,5.33,3.12,4.42a43.16,43.16,0,0,0,10.78-6.61c9-7.58,14.32-14.71,15.05-17.88C65.1,26.9,65,25.38,63.19,25.26Zm-1.06,4.48a32.36,32.36,0,0,1-4,5.78A89.91,89.91,0,0,1,52,42.12c-.12.1-.56,0-.37-.42,1.38-3.41-.72-5.65-.47-6.45a8,8,0,0,1,1.22-2.54c2.8-2.61,9.12-5.46,9.4-5.22s.66.34.72.81A3.55,3.55,0,0,1,62.13,29.75Z"/>
      <g>
        <path class="favicon-white" d="M90.41,90.32c-1.48,1.39-24.32,23.3-24.32,23.3.33.33,1.3,1,1.3,1s21-20.14,22.53-21.6c.42-.4,1.35-1.25,1.68-1.54Z"/>
        <path class="favicon-white" d="M133.47,63.3l1-.06a2.77,2.77,0,0,0,.87-.17c.19-.15.32-.37-.06-.38A15.27,15.27,0,0,1,130,61.07a40.24,40.24,0,0,0-6.15,2.12c-3.3,1.47-10.51,5.79-25.28,19.34l1.16,1.35c5.12-4.62,12-10.66,15.68-13.09,6.59-4.31,11.37-6.24,14.58-7A25.84,25.84,0,0,1,133.47,63.3Z"/>
      </g>
      <g>
        <path class="favicon-white" d="M119.09,52.55c-4.06-4.22-5.34-7.25-6-9.48a1.64,1.64,0,0,0-.07-.22.16.16,0,0,0-.25.1,1.62,1.62,0,0,0-.06.28c-.35,4.36,0,6.19-1.79,10.64a49.31,49.31,0,0,1-8,12.78c-2.15,2.51-5.79,6.62-9.14,10.44l2.35,2.78c.23-.27,1-1.06,1.83-2a181.37,181.37,0,0,1,24.58-22.08A43.21,43.21,0,0,1,119.09,52.55Z"/>
        <path class="favicon-white" d="M85.71,86C81,91.38,76.18,96.66,74.79,98.21c-1.17,1.3-11.56,12.48-11.56,12.48a4.84,4.84,0,0,0,.57.81c.32.36.87.85.87.85S86.46,90,88.11,88.26Z"/>
      </g>
      <path class="favicon-white" d="M123.06,37.77c0-.17,0-.32,0-.48-1.14-.31-2-.26-2.46.23-1.43,1.54,1.74,6.79,7.07,11.74s10.82,7.7,12.24,6.15c.57-.62.39-1.85-.36-3.41C131.83,52.91,123.06,42.73,123.06,37.77Z"/>
      <path class="favicon-white" d="M147.1,39.76c-.75.86-2,2.88-2.81,3.56.83-.73,1.3-2.53.4-7.24a25.73,25.73,0,0,0-1.48-5.47c-.25-.62-.62-.47-1.06,0a17.39,17.39,0,0,0-1.44,2.28c-.1.4,0,0-1.54-4.75a22,22,0,0,1-1.34-6.21c0-.56.06-1.15.08-1.57s-.19-.37-1.15.05a16.59,16.59,0,0,0-6.28,7.34c-1,2.48-1,4.52-1.2,3.27-.29-2.43-.25-2.39-.49-2.31a9.06,9.06,0,0,0-6.08,9c0,5.44,10.22,17,18.53,14.34,0,0,6.3-1.19,6.42-6.88S147.1,39.76,147.1,39.76Zm-2.07,7a7.45,7.45,0,0,1-3.27,2.84,9.92,9.92,0,0,1-6,.58c-6.13-1.9-9.82-8.15-9.82-8.15-4.83-7.82,1.65-11.15,2.19-11.26a10.64,10.64,0,0,0-.25,4.3,25.39,25.39,0,0,0,1.59,3.63,3.6,3.6,0,0,1-.62,3.48c-.22.3.35.14.48,0a4.57,4.57,0,0,1,.37-.3,2.94,2.94,0,0,0,1.45-2.79c-.57-2.41-2.3-3.92-.25-8.9a20.84,20.84,0,0,1,4.45-6.21c.45-.31.75-.71.77-.38s.53,2.57.8,4,2,4.4,1.58,8.5-7.06,8.58-8,8.87a3.27,3.27,0,0,0-.89.48c-.24.23.1.28.26.31a13.12,13.12,0,0,0,5.49-2.21,16,16,0,0,0,4.37-4.54,26.37,26.37,0,0,0,1.85-5.53c.19-.47.39-.45.45-.2s.53,2,.72,3a19.19,19.19,0,0,1,.4,3.48c0,3.07-.88,4.5-2.69,5.87a6.38,6.38,0,0,1-3.39,1.21l-.43.08c-.18,0-.33.08,0,.26.11.05.26.09.43.18a5.63,5.63,0,0,0,4.55-.43,15.38,15.38,0,0,0,2.62-2.12c.43-.41,1-1.18,1.07-.92A4.76,4.76,0,0,1,145,46.8Z"/>
    </g>
  </g>
</svg>
