<?xml version="1.0" encoding="utf-8"?>
<!-- Generator: Adobe Illustrator 22.1.0, SVG Export Plug-In . SVG Version: 6.00 Build 0)  -->
<svg version="1.1" id="Layer_1" xmlns="http://www.w3.org/2000/svg" xmlns:xlink="http://www.w3.org/1999/xlink" x="0px" y="0px"
	 width="800.2px" height="226px" viewBox="0 0 800.2 226" style="enable-background:new 0 0 800.2 226;" xml:space="preserve">
<style type="text/css">
	.st0{opacity:0.6;}
	.st1{fill:none;stroke:#006082;stroke-width:0.75;stroke-miterlimit:10;}
</style>
<g class="st0">
	<path class="st1" d="M228.7,0.1h228.6V113H228.7V0.1z"/>
	<path class="st1" d="M342.9,113l-57-56.6l57-56.3 M228.7,56.4L285,0.1 M228.7,56.4h57.1 M285.9,56.4V113 M342.9,0.1V113 M342.9,0.1
		L457.3,113 M228.7,113H0.1V0.1h228.6L228.7,113L228.7,113z"/>
	<path class="st1" d="M114.6,113l57-56.6l-57-56.3 M228.7,56.4L172.4,0.1 M228.7,56.4h-57.1 M171.6,56.4V113 M114.6,0.1V113
		 M114.6,0.1L0.1,113"/>
	<g>
		<path class="st1" d="M228.7,113h228.6v112.9H228.7V113z"/>
		<path class="st1" d="M342.9,113l-57,56.6l57,56.3 M228.7,169.6l56.3,56.3 M228.7,169.6h57.1 M285.9,169.6V113 M342.9,225.9V113
			 M342.9,225.9L457.3,113"/>
	</g>
	<g>
		<path class="st1" d="M228.7,225.9H0.1V113h228.6L228.7,225.9L228.7,225.9z"/>
		<path class="st1" d="M114.6,113l57,56.6l-57,56.3 M228.7,169.6l-56.3,56.3 M228.7,169.6h-57.1 M171.6,169.6V113 M114.6,225.9V113
			 M114.6,225.9L0.1,113"/>
	</g>
	<path class="st1" d="M57.3,56.5v112.9"/>
	<g>
		<path class="st1" d="M571.5,0.1h228.6V113H571.5V0.1z"/>
		<path class="st1" d="M685.7,113l-57-56.6l57-56.3 M571.5,56.4l56.3-56.3 M571.5,56.4h57.1 M628.6,56.4V113 M742.4,56v57
			 M685.7,0.1V113 M685.7,0.1L800.1,113"/>
	</g>
	<g>
		<path class="st1" d="M571.5,113H342.9V0.1h228.6V113z"/>
		<path class="st1" d="M457.3,113l57-56.6l-57-56.3 M571.5,56.4L515.2,0.1 M571.5,56.4h-57.1 M514.4,56.4V113 M457.3,0.1V113
			 M457.3,0.1L342.9,113"/>
	</g>
	<g>
		<path class="st1" d="M571.5,113h228.6v112.9H571.5V113z"/>
		<path class="st1" d="M685.7,113l-57,56.6l57,56.3 M571.5,169.6l56.3,56.3 M571.5,169.6h57.1 M628.6,169.6V113 M742.4,170v-57
			 M685.7,225.9V113 M685.7,225.9L800.1,113"/>
	</g>
	<g>
		<path class="st1" d="M571.5,225.9H342.9V113h228.6V225.9z"/>
		<path class="st1" d="M457.3,113l57,56.6l-57,56.3 M571.5,169.6l-56.3,56.3 M571.5,169.6h-57.1 M514.4,169.6V113 M457.3,225.9V113
			 M457.3,225.9L342.9,113"/>
	</g>
	<path class="st1" d="M400.1,56.5v112.9"/>
</g>
</svg>
