<svg xmlns="http://www.w3.org/2000/svg" width="800.2" height="226"><style>.st1{fill:none;stroke:#007dbe;stroke-width:.75;stroke-miterlimit:10}</style><g opacity=".6"><path d="M228.7.1h228.6V113H228.7V.1z" class="st1"/><path d="M342.9 113l-57-56.6 57-56.3M228.7 56.4L285 .1m-56.3 56.3h57.1m.1 0V113M342.9.1V113m0-112.9L457.3 113m-228.6 0H.1V.1h228.6V113z" class="st1"/><path d="M114.6 113l57-56.6-57-56.3m114.1 56.3L172.4.1m56.3 56.3h-57.1m0 0V113M114.6.1V113m0-112.9L.1 113M228.7 113h228.6v112.9H228.7V113z" class="st1"/><path d="M342.9 113l-57 56.6 57 56.3m-114.2-56.3l56.3 56.3m-56.3-56.3h57.1m.1 0V113m57 112.9V113m0 112.9L457.3 113M228.7 225.9H.1V113h228.6v112.9z" class="st1"/><path d="M114.6 113l57 56.6-57 56.3m114.1-56.3l-56.3 56.3m56.3-56.3h-57.1m0 0V113m-57 112.9V113m0 112.9L.1 113M57.3 56.5v112.9M571.5.1h228.6V113H571.5V.1z" class="st1"/><path d="M685.7 113l-57-56.6 57-56.3M571.5 56.4L627.8.1m-56.3 56.3h57.1m0 0V113m113.8-57v57M685.7.1V113m0-112.9L800.1 113M571.5 113H342.9V.1h228.6V113z" class="st1"/><path d="M457.3 113l57-56.6-57-56.3m114.2 56.3L515.2.1m56.3 56.3h-57.1m0 0V113M457.3.1V113m0-112.9L342.9 113" class="st1"/><g><path d="M571.5 113h228.6v112.9H571.5V113z" class="st1"/><path d="M685.7 113l-57 56.6 57 56.3m-114.2-56.3l56.3 56.3m-56.3-56.3h57.1m0 0V113m113.8 57v-57m-56.7 112.9V113m0 112.9L800.1 113" class="st1"/></g><g><path d="M571.5 225.9H342.9V113h228.6v112.9z" class="st1"/><path d="M457.3 113l57 56.6-57 56.3m114.2-56.3l-56.3 56.3m56.3-56.3h-57.1m0 0V113m-57.1 112.9V113m0 112.9L342.9 113" class="st1"/></g><path d="M400.1 56.5v112.9" class="st1"/></g></svg>