<svg xmlns="http://www.w3.org/2000/svg" data-name="Layer 1" viewBox="0 0 617.72 35.89"><path fill="#004990" d="M177.19 0h1.23v35.89h-1.23zM216.32 1.45a16.34 16.34 0 0 1 11.84 4.46 15.17 15.17 0 0 1 4.67 11.42 16.5 16.5 0 0 1-4.66 12.1 16 16 0 0 1-11.96 4.7q-7.45 0-12-4.52a15.87 15.87 0 0 1-4.6-11.85 17.34 17.34 0 0 1 1.21-6.3 15.18 15.18 0 0 1 3.27-5.22 15.42 15.42 0 0 1 5.49-3.52 18.52 18.52 0 0 1 6.8-1.3m-1.49 1.5a10.72 10.72 0 0 0-8.5 3.6q-3.15 3.6-3.15 9.7a17.64 17.64 0 0 0 4 11.77 12.44 12.44 0 0 0 9.89 4.79 11.34 11.34 0 0 0 8.84-3.9 14.3 14.3 0 0 0 3.48-9.89 16.43 16.43 0 0 0-4.17-11.48 13.5 13.5 0 0 0-10.45-4.56M250.91 17.73l5.91 8.9a45.67 45.67 0 0 0 3.67 5 4.44 4.44 0 0 0 2.54 1.29q.81.16.81.56c0 .27-.21.4-.62.4a7.75 7.75 0 0 1-.92-.08 27.72 27.72 0 0 0-3.45-.15h-1.17l-3 .23a6.5 6.5 0 0 1-.94.09q-.6 0-.6-.41a.83.83 0 0 1 .8-.63 1.45 1.45 0 0 0 1.29-1.43 4 4 0 0 0-.83-1.92l-6.05-9.1a1.34 1.34 0 0 0-.58-.62 3.31 3.31 0 0 0-1 1.22q-2.07 3.12-2.35 3.49l-2.3 3.28a8.11 8.11 0 0 0-1.77 3.6 1.17 1.17 0 0 0 1.11 1.41l1.2.14a.55.55 0 0 1 .58.56c0 .27-.19.41-.56.41a6.65 6.65 0 0 1-1-.09 18.25 18.25 0 0 0-2.86-.21q-1.71 0-3.73.17c-.42 0-.71.06-.9.06q-.74 0-.79-.41a.56.56 0 0 1 .58-.51 6.48 6.48 0 0 0 2.51-1.18 14.49 14.49 0 0 0 2.37-2.76c.94-1.33 1.73-2.45 2.38-3.34q2.93-4 3.51-4.84c.57-.84.93-1.36 1.06-1.54a2.57 2.57 0 0 0 .63-1.24 2.43 2.43 0 0 0-.42-.95l-.46-.76-5.08-7.51a32.73 32.73 0 0 0-3.68-4.88 5.13 5.13 0 0 0-2.92-1.21c-.61-.08-.93-.26-.93-.54s.28-.45.83-.45q1.68 0 5.13.25c.49 0 .88.07 1.17.07s1-.06 2.56-.19h.87c.49 0 .74.17.74.49s-.25.4-.74.47a1.26 1.26 0 0 0-1.3 1.25 4.92 4.92 0 0 0 1 2.21l5.4 8.09a.38.38 0 0 0 .26.21 1.31 1.31 0 0 0 .53-.55l4.77-6.74.79-1a3.52 3.52 0 0 0 .85-1.93 1.26 1.26 0 0 0-1-1.33l-.81-.21a.65.65 0 0 1-.6-.59c0-.24.17-.35.51-.33l.9.06q1 .1 3.42.1a24.25 24.25 0 0 0 2.5-.12l1.09-.08c.4 0 .6.11.6.36a.75.75 0 0 1-.6.68l-1.13.44A9.29 9.29 0 0 0 257 6.83l-6 8.41a3.15 3.15 0 0 0-.7 1.34 1.25 1.25 0 0 0 .26.69zM274.1 5.58V15.73q.09.62 1.31.62h5.47a5.74 5.74 0 0 0 3.08-.63 3 3 0 0 0 1.22-2.18.53.53 0 0 1 .47-.55q.45 0 .4.71l-.14 2.28v1.4q0 2.69.09 3.43v.64a.44.44 0 0 1-.43.55c-.3 0-.53-.38-.7-1.13a4.89 4.89 0 0 0-.6-1.66 1.82 1.82 0 0 0-1.08-.62 19.72 19.72 0 0 0-4.53-.39 32.83 32.83 0 0 0-3.57.12.92.92 0 0 0-.9.53 5.87 5.87 0 0 0-.12 1.39v8.6a4.22 4.22 0 0 0 1 2.92 3.31 3.31 0 0 0 2.61 1.09c.52 0 .79.15.8.45s-.2.52-.69.52a13.68 13.68 0 0 1-1.41-.1 18.22 18.22 0 0 0-2.26-.1h-3.38q-.58 0-1.57.09l-1.18.07c-.45 0-.67-.12-.67-.4a.7.7 0 0 1 .71-.52 2.86 2.86 0 0 0 2-1.25 6.86 6.86 0 0 0 .53-3.19V7.61a6.54 6.54 0 0 0-.71-3.37 2.61 2.61 0 0 0-1-1.06 5.77 5.77 0 0 0-1.91-.39.5.5 0 0 1-.58-.4c0-.39.28-.59.92-.59.2 0 .68 0 1.43.11q2 .21 6.94.21 4.36 0 5.6-.07l3.2-.16a24.24 24.24 0 0 0 2.68-.21 3.7 3.7 0 0 1 .76-.09.46.46 0 0 1 .5.53 3.44 3.44 0 0 1-.11.76 16.55 16.55 0 0 0-.39 4q0 1.06-.62 1.06c-.24 0-.37-.19-.4-.58a10.09 10.09 0 0 0-.25-1.45 2.75 2.75 0 0 0-.74-1.51 4.48 4.48 0 0 0-2-.47l-2.71-.28q-1.29-.11-3.26-.11a8.89 8.89 0 0 0-3.19.33 1.82 1.82 0 0 0-.62 1.71M309.26 1.45a16.34 16.34 0 0 1 11.84 4.46 15.17 15.17 0 0 1 4.63 11.42 16.5 16.5 0 0 1-4.66 12.1 16 16 0 0 1-11.93 4.7q-7.45 0-12-4.52a15.86 15.86 0 0 1-4.6-11.85 17.34 17.34 0 0 1 1.21-6.3 15.18 15.18 0 0 1 3.27-5.22 15.44 15.44 0 0 1 5.49-3.52 18.52 18.52 0 0 1 6.8-1.3m-1.49 1.5a10.72 10.72 0 0 0-8.5 3.6q-3.15 3.6-3.15 9.7a17.64 17.64 0 0 0 4 11.77 12.44 12.44 0 0 0 9.89 4.79 11.34 11.34 0 0 0 8.84-3.9 14.3 14.3 0 0 0 3.48-9.89 16.43 16.43 0 0 0-4.17-11.48 13.5 13.5 0 0 0-10.41-4.59M362.37 7.57a5.92 5.92 0 0 0-.78-3.42 3.46 3.46 0 0 0-2.61-1.27c-.51 0-.76-.2-.76-.47s.2-.45.6-.45l1.82.09h1.61q2.33 0 3.62-.12l2.14-.21c.92-.08 1.94-.12 3-.12q9.45 0 14.18 4.75a15.07 15.07 0 0 1 4.31 11.09 17.13 17.13 0 0 1-1.89 8 14.5 14.5 0 0 1-5.26 5.74 17.15 17.15 0 0 1-9.27 2.65c-.4 0-1.11 0-2.12-.11q-3.09-.21-5.37-.21a31.55 31.55 0 0 0-4.29.25c-.55.08-1 .12-1.31.14-.54 0-.81-.14-.81-.52a.63.63 0 0 1 .64-.52 2.83 2.83 0 0 0 2-1.15 8.13 8.13 0 0 0 .46-3.4V7.52zm3.53-1.83v23.74a1.94 1.94 0 0 0 1.4 1.93 18.07 18.07 0 0 0 3.12.81 18.52 18.52 0 0 0 3.21.35 13.08 13.08 0 0 0 7.1-2q5.34-3.31 5.34-11.28a18.87 18.87 0 0 0-1.67-8 14 14 0 0 0-4.6-5.71 14.53 14.53 0 0 0-8.68-2.56c-2.43 0-4 .26-4.63.78a2.31 2.31 0 0 0-.6 1.89M436.37 4.75l.74 5.53.07.58-.07.23a.42.42 0 0 1-.35.23 1.63 1.63 0 0 1-.83-1q-4.32-7.54-11.7-7.54-5.89 0-9.28 3.61t-3.39 9.88q0 7.21 3.77 11.78a12 12 0 0 0 9.7 4.57 13.93 13.93 0 0 0 6.81-1.85 10.65 10.65 0 0 0 4.64-4.49 2.21 2.21 0 0 1 .92-1.25c.25 0 .37.13.37.44v.26l-.09.51-.55 2.89-.09.42a2.12 2.12 0 0 1-1.08 1.24 21.43 21.43 0 0 1-11.74 3.34q-7.42 0-12-4.4a15.4 15.4 0 0 1-4.51-11.6 16.31 16.31 0 0 1 4.7-11.95 15.93 15.93 0 0 1 11.81-4.76 18.63 18.63 0 0 1 8.95 2.19l.92.48.37.16.37.18a.69.69 0 0 0 .35-.18 1.65 1.65 0 0 1 .69-.37c.25 0 .41.29.48.88M459.28 1.45a16.35 16.35 0 0 1 11.84 4.46 15.18 15.18 0 0 1 4.62 11.42 16.5 16.5 0 0 1-4.66 12.1 16 16 0 0 1-11.91 4.7q-7.45 0-12-4.52t-4.6-11.85a17.36 17.36 0 0 1 1.21-6.3 15.23 15.23 0 0 1 3.27-5.22 15.45 15.45 0 0 1 5.49-3.52 18.52 18.52 0 0 1 6.8-1.3m-1.49 1.5a10.71 10.71 0 0 0-8.5 3.6q-3.15 3.6-3.15 9.7a17.66 17.66 0 0 0 4 11.77 12.45 12.45 0 0 0 9.89 4.79 11.33 11.33 0 0 0 8.84-3.9 14.31 14.31 0 0 0 3.49-9.89 16.42 16.42 0 0 0-4.18-11.48 13.5 13.5 0 0 0-10.41-4.56M486.53 27.34v.81q0 2.77.53 3.28t3.46.51a24.46 24.46 0 0 0 7.5-1q3.18-1 4.05-2.71a.91.91 0 0 1 .64-.62c.25 0 .36.15.35.46a6.24 6.24 0 0 1-1.5 3.33q-2 2.5-6.44 2.5c-.49 0-1.06 0-1.71-.07l-2.49-.18q-2.19-.16-4.64-.16a34 34 0 0 0-4.76.28c-.54.08-1 .12-1.29.14s-.57-.12-.57-.4a.67.67 0 0 1 .63-.54 3.53 3.53 0 0 0 2.15-1.42 6.61 6.61 0 0 0 .55-3.15V6.69q0-3.07-2.49-3.58l-1-.21a.53.53 0 0 1-.55-.45c0-.34.26-.52.78-.52q.53 0 1.45.09 1.56.14 3.52.14c1.41 0 2.69 0 3.84-.12h1c.37 0 .55.11.55.34a.7.7 0 0 1-.67.65l-.81.18q-2.07.51-2.08 4.13v20.07zM513.03 27.34v.81q0 2.77.53 3.28t3.46.51a24.48 24.48 0 0 0 7.5-1q3.17-1 4.05-2.71a.9.9 0 0 1 .64-.62c.25 0 .36.15.35.46a6.26 6.26 0 0 1-1.5 3.33q-2 2.5-6.44 2.5c-.49 0-1.06 0-1.7-.07l-2.49-.18q-2.2-.16-4.64-.16a34 34 0 0 0-4.76.28c-.54.08-1 .12-1.29.14s-.58-.12-.58-.4a.67.67 0 0 1 .63-.54 3.52 3.52 0 0 0 2.15-1.42 6.61 6.61 0 0 0 .55-3.15V6.69q0-3.07-2.49-3.58l-1-.21a.54.54 0 0 1-.55-.45q0-.52.78-.52c.35 0 .84 0 1.45.09q1.56.14 3.52.14 2.12 0 3.84-.12h1c.37 0 .55.11.55.34a.7.7 0 0 1-.67.65l-.81.18q-2.07.51-2.07 4.13v20.07zM585.02 25.8v-5.19a2.42 2.42 0 0 0-.61-1.92 4.7 4.7 0 0 0-2.46-.64c-.6-.06-.91-.26-.92-.59s.24-.43.78-.43h6.8q1.59-.12 1.85-.12a.43.43 0 0 1 .53.43.72.72 0 0 1-.69.56 2.27 2.27 0 0 0-1.75 2.54v8.87l-.14.35a1.57 1.57 0 0 1-.67.18 6.43 6.43 0 0 0-1.91.83l-1.52.9a19 19 0 0 1-9.66 2.61 15.33 15.33 0 0 1-11.34-4.44 15.39 15.39 0 0 1-4.43-11.36 16.7 16.7 0 0 1 4.69-12.11 15.68 15.68 0 0 1 11.75-4.84 23.25 23.25 0 0 1 5.78.79 16.71 16.71 0 0 1 4.88 2 .91.91 0 0 0 .39.18.88.88 0 0 0 .44-.18l.55-.41a.5.5 0 0 1 .33-.14q.41 0 .41 1.08a13.72 13.72 0 0 0 .14 1.57l.23 2.17a17.39 17.39 0 0 0 .33 1.75 2.67 2.67 0 0 1 .11.67.48.48 0 0 1-.46.58.55.55 0 0 1-.51-.39 14.37 14.37 0 0 0-5.54-6 14.87 14.87 0 0 0-7.92-2.3 10.58 10.58 0 0 0-8.52 4 15.44 15.44 0 0 0-3.3 10.22 16.92 16.92 0 0 0 3.79 11.25 11.8 11.8 0 0 0 9.4 4.52 10.12 10.12 0 0 0 8.37-3.78 5.16 5.16 0 0 0 .74-3.16M335.3 5.26c0-1.74.94-1.66 2.56-1.66 4.41 0 8.58 1.84 8.58 7.32s-4.31 6.37-6.25 6.37c-2.11 0-4.89.22-4.89-.63V5.26zm8.85 12.38a8.67 8.67 0 0 0 5.67-7.75c0-8.67-9.94-7.77-10.66-7.77-2.34 0-4.88.18-7.47.18a25 25 0 0 1-2.86-.17.77.77 0 0 0-.89.54c0 1.52 3.85-.32 3.85 4V29.5c0 3.42-3.28 2.78-3.28 3.91a.47.47 0 0 0 .45.49c1.7 0 3.4-.18 5.1-.18 3.72 0 4.75.18 5.16.18s.76.09.76-.36c0-1.53-4.67-.14-4.67-4v-9.48c0-.46-.27-1.26 1.16-1.26 5 0 4.37-.14 6 2.38l5 7.87c1.71 2.56 3.46 4.85 6.73 4.85.41 0 4 0 4-.54 0-1.09-3.24.59-6.47-4.37zM538.88 15.2c0 1.53-.09 1.53 1.7 1.53h4.84c4.65 0 3.45-3.59 4.51-3.59a.74.74 0 0 1 .49.85c0 1.58-.06 3.1-.06 4.52 0 1.17.06 2.34.06 3.55a.47.47 0 0 1-.49.58c-1.38 0 .14-3.95-3.61-3.95h-6.63c-.94 0-.8.77-.8 1.44v8.26c0 2.65-.36 3.73 3.4 3.73 10.33 0 11.85-4.63 12.43-4.63.31 0 .36.46.36.54 0 1.62-1.16 3.19-2.23 4.36-1.44 1.63-2.42 1.54-4.38 1.54-3.4 0-6.8-.28-10.2-.19-1.78 0-3.66.19-5.45.19-.41 0-.67-.1-.67-.46.09-.55.54-.46 2-1.18 1.16-.53 1.25-1.8 1.25-3.91V7.92c0-2 0-4.18-2.42-4.54-.36-.08-1.34-.17-1.34-.69 0-.36.27-.54 1.57-.54 8.44 0 10.77.19 12.65.19.89 0 5-.19 6.39-.19.35 0 .44.45.44 1 0 5-.63 5.34-.89 5.34-1.08 0-.36-2.15-1.08-3.19-1.15-1.53-5.79-1.26-7.59-1.26-4.29 0-4.2-.18-4.2 2.83v8.35zM601.54 15.2c0 1.53-.09 1.53 1.7 1.53h4.84c4.64 0 3.45-3.59 4.51-3.59a.74.74 0 0 1 .49.85c0 1.58-.06 3.1-.06 4.52 0 1.17.06 2.34.06 3.55a.47.47 0 0 1-.49.58c-1.38 0 .14-3.95-3.61-3.95h-6.63c-.94 0-.8.77-.8 1.44v8.26c0 2.65-.36 3.73 3.4 3.73 10.33 0 11.85-4.63 12.43-4.63.31 0 .36.46.36.54 0 1.62-1.16 3.19-2.23 4.36-1.44 1.63-2.42 1.54-4.37 1.54-3.4 0-6.8-.28-10.2-.19-1.78 0-3.66.19-5.45.19-.41 0-.67-.1-.67-.46.09-.55.54-.46 2-1.18 1.16-.53 1.25-1.8 1.25-3.91V7.92c0-2 0-4.18-2.42-4.54-.36-.08-1.34-.17-1.34-.69 0-.36.27-.54 1.57-.54 8.44 0 10.77.19 12.65.19.89 0 5-.19 6.39-.19.35 0 .44.45.44 1 0 5-.62 5.34-.89 5.34-1.08 0-.36-2.15-1.08-3.19-1.15-1.53-5.79-1.26-7.59-1.26-4.29 0-4.2-.18-4.2 2.83v8.35zM82.83 3.2c9.11 0 14.85 8.26 14.85 16.76s-5.46 14.09-12.29 14.09c-9.24 0-14.89-8.35-14.89-17 0-7.37 4.49-13.86 12.33-13.86m.61 32.26c10.41 0 17.64-6.78 17.64-17.28 0-9.67-7.32-16.53-16.85-16.53S67.11 8.69 67.11 18.41s6.19 17 16.33 17M110.99 5.3c0-1.77.95-1.68 2.58-1.68 4.45 0 8.67 1.86 8.67 7.39s-4.35 6.43-6.31 6.43c-2.13 0-4.94.22-4.94-.63V5.3zm8.94 12.5a8.75 8.75 0 0 0 5.73-7.83c0-8.75-10-7.85-10.77-7.85-2.37 0-4.93.18-7.54.18a25.08 25.08 0 0 1-2.9-.18.79.79 0 0 0-.9.55c0 1.55 3.89-.32 3.89 4v23.07c0 3.45-3.31 2.81-3.31 4a.47.47 0 0 0 .45.5c1.72 0 3.44-.18 5.15-.18 3.76 0 4.8.18 5.21.18s.77.09.77-.37c0-1.55-4.72-.13-4.72-4v-9.58c0-.46-.27-1.28 1.17-1.28 5.1 0 4.41-.13 6 2.41l5 8c1.73 2.58 3.49 4.9 6.8 4.9.41 0 4 0 4-.55 0-1.09-3.27.59-6.54-4.41zM133.17 4.96c-1.18-2-3.4-1.4-3.4-2.17a.69.69 0 0 1 .59-.68c1.22 0 2.08.2 5.16.2 1.49 0 2.72-.2 3.17-.2s.86.05.86.46c0 .77-2.13.81-2.13 2.13a3.68 3.68 0 0 0 .81 1.86l5.47 8.76a1.39 1.39 0 0 0 .9.81 1.6 1.6 0 0 0 .85-.91l4.67-7.58a4.28 4.28 0 0 0 .95-2.49c0-2.22-3.39-1.27-3.39-2.36 0-.59.45-.68.95-.68 1.08 0 2.22.2 3.3.2 1.31 0 2.62-.2 3.93-.2a.58.58 0 0 1 .5.54c0 .5-.76.68-1.09.86a8.61 8.61 0 0 0-2.53 3.13l-6.34 9.89c-.73 1.14-1.09 1.37-1.09 2v11.12c0 3.94 3.72 2.67 3.72 4.08 0 .41-.41.45-1 .45s-3.31-.2-5-.2c-2 0-3.66.2-4.07.2s-.68 0-.68-.55c0-1.27 3.48-.09 3.48-3.31v-11a4.77 4.77 0 0 0-1-2.32zM62.43 30.03c.22 3.8 3.58 2.13 3.58 3.71 0 .45-.6.45-1.09.45-.86 0-2.45-.2-4.25-.2-1.4 0-2.85.2-3.92.2a.41.41 0 0 1-.5-.41c0-1.36 2.85-.36 2.81-3.71l-1.23-17.56c0-1.13-.23-1.77-.5-1.77s-.73.41-1.19 1.36l-9.38 19.1c-.23.41-1 2.26-1.41 2.26s-.77-1-.91-1.32l-9.61-20.17a.65.65 0 0 0-.55-.5.65.65 0 0 0-.31.68l-1.32 15.9c-.23 6 4.06 4 4.06 5.65 0 .46-.5.5-1.14.5s-2.62-.2-4-.2c-2.35 0-3.12.2-4 .2a.46.46 0 0 1-.45-.55c0-1.54 2.9.32 3.21-4.39.55-7.4 1.09-12.21 1.09-17 0-10.66-3.51-8.12-3.51-9.66 0-.41.36-.5.77-.5.81 0 1.63.2 2.49.2s1.62-.2 2.42-.2c.64 0 .73.77 1 1.27l10.82 23c.51 1 .68 1.36 1 1.36s.68-.95 1.4-2.45L58.62 3.6c.26-.49.62-1.59 1.16-1.54s1.9.2 2.12.2c1 0 1.45-.2 2.17-.2a.51.51 0 0 1 .45.55c0 1.45-3.63-.51-3.44 4.9zM7.36 15.34c0 1.55-.09 1.55 1.71 1.55h4.89c4.69 0 3.48-3.63 4.56-3.63a.75.75 0 0 1 .49.86c0 1.59-.06 3.13-.06 4.57 0 1.18.06 2.36.06 3.58a.48.48 0 0 1-.49.59c-1.39 0 .14-4-3.65-4H8.18c-1 0-.81.77-.81 1.45v8.35c0 2.68-.36 3.77 3.43 3.77 10.43 0 12-4.68 12.56-4.68.31 0 .36.46.36.55 0 1.64-1.18 3.22-2.26 4.41-1.45 1.64-2.45 1.55-4.42 1.55-3.44 0-6.87-.28-10.3-.18-1.8 0-3.7.18-5.5.18-.41 0-.68-.09-.68-.45.09-.55.54-.46 2-1.19 1.17-.54 1.27-1.82 1.27-3.95V8c0-2 0-4.22-2.45-4.59-.36-.09-1.35-.17-1.35-.7 0-.36.27-.55 1.58-.55 8.53 0 10.88.2 12.78.2.9 0 5-.2 6.46-.2.36 0 .45.45.45 1 0 5-.63 5.4-.9 5.4-1.09 0-.36-2.18-1.09-3.22-1.16-1.54-5.85-1.27-7.67-1.27-4.34 0-4.25-.18-4.25 2.86v8.44z"/></svg>