<svg xmlns="http://www.w3.org/2000/svg" viewBox="0 0 1920 1080"><g data-name="Layer 2"><path fill="#b3b6ba" d="M0 0h1920v1080H0z"/><path fill="#474b4f" d="M872.33 541.81h-12v-62.42-6.29q0-3.35.14-6.67.1-3.31.21-6.36t.17-5.37q-1.16 1.23-2.05 2.12t-1.8 1.72l-2 1.75q-1 .92-2.46 2.15l-10.12 8.27-6.56-8.41 26.18-20.44h10.25zM908.56 499.08a142.15 142.15 0 0 1 .72-14.29 81.54 81.54 0 0 1 2.53-13.64 54.42 54.42 0 0 1 5-12.13 35.53 35.53 0 0 1 8-9.74 35.94 35.94 0 0 1 11.62-6.49 48.22 48.22 0 0 1 15.86-2.36q1.3 0 2.87.07t3.18.24q1.61.17 3.08.41a22 22 0 0 1 2.63.58v10.6a28.61 28.61 0 0 0-5.4-1.23 44 44 0 0 0-5.95-.41 36.24 36.24 0 0 0-10.83 1.47 25.4 25.4 0 0 0-8.1 4.14 24.12 24.12 0 0 0-5.71 6.36 36.63 36.63 0 0 0-3.73 8.17 55.51 55.51 0 0 0-2.12 9.54q-.68 5.06-.89 10.53h.82a24.85 24.85 0 0 1 3.32-4.61 19.43 19.43 0 0 1 4.55-3.69 23.68 23.68 0 0 1 5.84-2.43 27.6 27.6 0 0 1 7.28-.89 32.66 32.66 0 0 1 11.76 2 24 24 0 0 1 9 5.91 26.76 26.76 0 0 1 5.71 9.54 38.17 38.17 0 0 1 2 12.89 43.32 43.32 0 0 1-2.12 14 29.57 29.57 0 0 1-6.08 10.56 26.55 26.55 0 0 1-9.57 6.67 32.57 32.57 0 0 1-12.58 2.32 31.12 31.12 0 0 1-12.82-2.67 27.5 27.5 0 0 1-10.43-8.13 40.88 40.88 0 0 1-6.9-13.74 67.18 67.18 0 0 1-2.54-19.55zM941 532.71a19.38 19.38 0 0 0 7.49-1.4 15.5 15.5 0 0 0 5.84-4.24 19.54 19.54 0 0 0 3.79-7.18 35.23 35.23 0 0 0 1.33-10.29 30.1 30.1 0 0 0-1.13-8.58 17.64 17.64 0 0 0-3.38-6.46 14.86 14.86 0 0 0-5.64-4.1 20.09 20.09 0 0 0-7.9-1.44 21.27 21.27 0 0 0-8.37 1.61 21 21 0 0 0-6.46 4.17 18.59 18.59 0 0 0-4.14 5.84 15.93 15.93 0 0 0-1.47 6.56 33.88 33.88 0 0 0 1.26 9.13 27 27 0 0 0 3.76 8.17 20.37 20.37 0 0 0 6.25 5.91 16.48 16.48 0 0 0 8.77 2.3zM989.91 474.33a12.76 12.76 0 0 1 .68-4.48 7.9 7.9 0 0 1 1.85-2.94 6.64 6.64 0 0 1 2.73-1.61 12.32 12.32 0 0 1 6.8 0 6.64 6.64 0 0 1 2.77 1.61 7.93 7.93 0 0 1 1.85 2.94 12.78 12.78 0 0 1 .68 4.48 12 12 0 0 1-.68 4.31 8.3 8.3 0 0 1-1.85 2.94 7.08 7.08 0 0 1-2.77 1.71 10.85 10.85 0 0 1-6.8 0 7.11 7.11 0 0 1-2.73-1.71 8.28 8.28 0 0 1-1.85-2.94 12 12 0 0 1-.68-4.31zm0 59.88a12.53 12.53 0 0 1 .68-4.41 7.9 7.9 0 0 1 1.85-2.94 7 7 0 0 1 2.73-1.64 11.54 11.54 0 0 1 6.8 0 7 7 0 0 1 2.77 1.64 7.93 7.93 0 0 1 1.85 2.94 12.55 12.55 0 0 1 .68 4.41 12.32 12.32 0 0 1-.68 4.34 8.26 8.26 0 0 1-1.85 3 7.11 7.11 0 0 1-2.77 1.71 10.85 10.85 0 0 1-6.8 0 7.13 7.13 0 0 1-2.73-1.71 8.23 8.23 0 0 1-1.85-3 12.3 12.3 0 0 1-.68-4.33zM1089.44 484.52a143.15 143.15 0 0 1-.72 14.32 80.76 80.76 0 0 1-2.53 13.64 55.39 55.39 0 0 1-5 12.13 34.88 34.88 0 0 1-8 9.74 36.3 36.3 0 0 1-11.62 6.46 48.22 48.22 0 0 1-15.86 2.36q-1.3 0-2.87-.07t-3.14-.24q-1.57-.17-3.08-.38a18.27 18.27 0 0 1-2.67-.55v-10.65a25.32 25.32 0 0 0 5.4 1.3 44 44 0 0 0 5.95.41q9.23 0 15.18-3.21a25 25 0 0 0 9.43-8.72 37.53 37.53 0 0 0 5-12.82 99.72 99.72 0 0 0 1.81-15.45h-.89a24.78 24.78 0 0 1-3.28 4.58 20 20 0 0 1-4.51 3.69 22.76 22.76 0 0 1-5.88 2.46 28 28 0 0 1-7.31.89 32.63 32.63 0 0 1-11.76-2 23.93 23.93 0 0 1-9-5.91 26.74 26.74 0 0 1-5.71-9.54 38.14 38.14 0 0 1-2-12.89 43 43 0 0 1 2.15-14 30.2 30.2 0 0 1 6.08-10.6 26.17 26.17 0 0 1 9.57-6.67 32.83 32.83 0 0 1 12.61-2.32 31.05 31.05 0 0 1 12.85 2.67 27.6 27.6 0 0 1 10.32 8.13 40.9 40.9 0 0 1 6.9 13.77 67.3 67.3 0 0 1 2.58 19.47zM1057 451a19.81 19.81 0 0 0-7.49 1.37 15 15 0 0 0-5.84 4.24 19.9 19.9 0 0 0-3.79 7.21 35.24 35.24 0 0 0-1.33 10.29 30.09 30.09 0 0 0 1.13 8.58 17.64 17.64 0 0 0 3.38 6.46 14.86 14.86 0 0 0 5.64 4.1 20.09 20.09 0 0 0 7.9 1.44 21.1 21.1 0 0 0 14.83-5.78 18.61 18.61 0 0 0 4.14-5.84 15.94 15.94 0 0 0 1.47-6.56 33.93 33.93 0 0 0-1.26-9.13 27.56 27.56 0 0 0-3.76-8.2 19.89 19.89 0 0 0-6.25-5.91A16.68 16.68 0 0 0 1057 451z"/><path fill="#5a5e63" d="M792.63 632.81l-12-39.2h-.31q.65 12 .65 16v23.24h-9.47v-50h14.42l11.8 38.15h.21l12.54-38.21h14.42v50H815v-23.64q0-1.67.05-3.86t.46-11.62h-.31l-12.89 39.14zM889.83 607.75q0 12.41-6.15 19.07T866 633.49q-11.48 0-17.64-6.67t-6.15-19.14q0-12.47 6.17-19.05t17.73-6.63q11.52 0 17.62 6.63t6.1 19.12zm-36.47 0q0 8.37 3.18 12.61t9.5 4.24q12.68 0 12.68-16.85t-12.61-16.88q-6.33 0-9.54 4.26t-3.21 12.62zM951.51 632.81H938L916.31 595H916q.65 10 .65 14.29v23.52h-9.47v-50h13.37l21.7 37.43h.24q-.51-9.74-.51-13.77v-23.64h9.54zM989.79 632.81h-22.73v-6l6.08-2.8v-32.36l-6.08-2.8v-6h22.73v6l-6.08 2.8V624l6.08 2.8zM1024.61 632.81H1014v-41.16h-13.57v-8.82h37.73v8.82h-13.57zM1097.54 607.75q0 12.41-6.15 19.07t-17.64 6.67q-11.48 0-17.64-6.67t-6.11-19.14q0-12.47 6.17-19.05t17.69-6.58q11.52 0 17.62 6.63t6.06 19.07zm-36.47 0q0 8.37 3.18 12.61t9.5 4.24q12.68 0 12.68-16.85t-12.61-16.88q-6.32 0-9.54 4.26t-3.21 12.62zM1125.49 613.63v19.17h-10.6v-50h14.56q10.19 0 15.07 3.71t4.89 11.26a13.27 13.27 0 0 1-2.43 7.84 16.07 16.07 0 0 1-6.87 5.38l14.7 21.77h-11.76l-11.93-19.17zm0-8.61h3.42q5 0 7.42-1.67a6 6 0 0 0 2.39-5.26q0-3.56-2.44-5.06t-7.57-1.5h-3.21z"/></g></svg>