<svg xmlns="http://www.w3.org/2000/svg" viewBox="0 0 300 300"><path fill="#b3b6ba" d="M0 0h300v300H0z" data-name="Layer 1"/><g data-name="Layer 2"><path fill="#474b4f" d="M137.37 146.11h-3.09v-16-1.62-1.71q0-.85.05-1.63t0-1.38l-.53.54-.47.44-.5.45-.63.55-2.6 2.13-1.6-2.21 6.73-5.26h2.64zM147.78 128.76a3.28 3.28 0 0 1 .18-1.15 2 2 0 0 1 .47-.76 1.71 1.71 0 0 1 .7-.41 3.17 3.17 0 0 1 1.75 0 1.7 1.7 0 0 1 .71.41 2 2 0 0 1 .47.76 3.28 3.28 0 0 1 .18 1.15 3.09 3.09 0 0 1-.18 1.11 2.14 2.14 0 0 1-.47.76 1.82 1.82 0 0 1-.71.44 2.79 2.79 0 0 1-1.75 0 1.83 1.83 0 0 1-.7-.44 2.14 2.14 0 0 1-.47-.76 3.09 3.09 0 0 1-.18-1.11zm0 15.4A3.22 3.22 0 0 1 148 143a2 2 0 0 1 .47-.76 1.79 1.79 0 0 1 .7-.42 3 3 0 0 1 1.75 0 1.79 1.79 0 0 1 .71.42 2 2 0 0 1 .47.76 3.22 3.22 0 0 1 .18 1.13 3.17 3.17 0 0 1-.18 1.12 2.12 2.12 0 0 1-.47.76 1.82 1.82 0 0 1-.71.44 2.79 2.79 0 0 1-1.75 0 1.83 1.83 0 0 1-.7-.44 2.12 2.12 0 0 1-.47-.76 3.17 3.17 0 0 1-.22-1.09zM167.8 146.11h-3.1v-16-1.62-1.71q0-.85.05-1.63t0-1.38l-.53.54-.47.44-.5.45-.63.55-2.6 2.13-1.69-2.16 6.73-5.26h2.64z"/><path fill="#5a5e63" d="M84.47 176.11h-3.18v-12.35h-4.07v-2.65h11.32v2.65h-4.07zM105.23 176.11h-3.17v-6.47h-5.94v6.47h-3.18v-15h3.18V167h5.94v-5.88h3.17zM123.31 161.12v9.7a5.6 5.6 0 0 1-.74 2.91 4.84 4.84 0 0 1-2.15 1.92 7.68 7.68 0 0 1-3.32.67 6.36 6.36 0 0 1-4.49-1.48 5.26 5.26 0 0 1-1.6-4.06v-9.66h3.17v9.18a3.84 3.84 0 0 0 .7 2.54 2.9 2.9 0 0 0 2.31.81 2.83 2.83 0 0 0 2.26-.82 3.86 3.86 0 0 0 .7-2.56v-9.16zM135.43 176.11l-3.61-11.76h-.09q.19 3.59.19 4.79v7h-2.84v-15h4.33l3.59 11.44 3.76-11.46h4.33v15h-3V169v-1.16q0-.66.14-3.49h-.09l-3.87 11.74zM151 161.12h4.67a9 9 0 0 1 4.63.91 3.16 3.16 0 0 1 1.44 2.89 3.64 3.64 0 0 1-.63 2.2 2.52 2.52 0 0 1-1.68 1v.1a3.3 3.3 0 0 1 2.06 1.19 3.87 3.87 0 0 1 .63 2.32 3.82 3.82 0 0 1-1.48 3.2 6.41 6.41 0 0 1-4 1.15H151zm3.18 5.94H156a3.37 3.37 0 0 0 1.87-.4 1.49 1.49 0 0 0 .58-1.32 1.32 1.32 0 0 0-.63-1.24 4.06 4.06 0 0 0-2-.37h-1.67zm0 2.52v3.91h2.07a3.07 3.07 0 0 0 1.94-.5 1.86 1.86 0 0 0 .63-1.54q0-1.87-2.67-1.87zM180.49 176.11h-4l-6.52-11.34h-.09q.19 3 .19 4.29v7.05h-2.84v-15h4l6.51 11.23h.07q-.15-2.92-.15-4.13v-7.1h2.86zM195.54 176.11l-1.09-3.57H189l-1.09 3.57h-3.42l5.29-15.05h3.89l5.33 15.05zm-1.85-6.23q-1.51-4.85-1.7-5.49t-.27-1q-.34 1.31-1.94 6.49zM208.56 176.11h-6.82v-1.8l1.83-.84v-9.7l-1.83-.84v-1.8h6.82v1.8l-1.83.84v9.7l1.83.84zM213.23 176.11v-15h3.18v12.37h6.08v2.63z"/></g></svg>