<svg xmlns="http://www.w3.org/2000/svg" viewBox="0 0 2560 1080"><g data-name="Layer 2"><path fill="#b3b6ba" d="M0 0h2560v1080H0z"/><path fill="#474b4f" d="M1212.63 538.85h-62.34v-10.66l23.93-26q5.13-5.54 9.16-10.12a77.24 77.24 0 0 0 6.87-9 39.81 39.81 0 0 0 4.34-8.78 29.59 29.59 0 0 0 1.5-9.6 20.06 20.06 0 0 0-1.16-7.11 14.57 14.57 0 0 0-3.32-5.23 14 14 0 0 0-5.09-3.25 18.72 18.72 0 0 0-6.52-1.1 25.72 25.72 0 0 0-11.72 2.63 48.13 48.13 0 0 0-9.95 6.73l-7-8.13a56.35 56.35 0 0 1 5.88-4.61 40.42 40.42 0 0 1 6.77-3.73 43.63 43.63 0 0 1 7.66-2.5 37.9 37.9 0 0 1 8.48-.92 35.89 35.89 0 0 1 11.86 1.85 25 25 0 0 1 9 5.3 23.44 23.44 0 0 1 5.71 8.41 29.44 29.44 0 0 1 2 11.18 33.8 33.8 0 0 1-1.81 11.07 50.73 50.73 0 0 1-5 10.36 83.75 83.75 0 0 1-7.59 10.22q-4.41 5.13-9.54 10.66L1165.53 527v.55h47.1zM1269.44 538.85h-12v-62.41-6.29q0-3.35.14-6.67.1-3.31.21-6.36t.17-5.37q-1.16 1.23-2.05 2.12t-1.81 1.71l-1.95 1.74q-1 .92-2.46 2.15l-10.12 8.27-6.56-8.41 26.18-20.44h10.25zM1309.91 471.38a12.76 12.76 0 0 1 .68-4.48 7.9 7.9 0 0 1 1.85-2.94 6.64 6.64 0 0 1 2.73-1.61 12.32 12.32 0 0 1 6.8 0 6.64 6.64 0 0 1 2.77 1.61 7.93 7.93 0 0 1 1.85 2.94 12.78 12.78 0 0 1 .68 4.48 12 12 0 0 1-.68 4.31 8.3 8.3 0 0 1-1.85 2.94 7.08 7.08 0 0 1-2.77 1.71 10.85 10.85 0 0 1-6.8 0 7.11 7.11 0 0 1-2.73-1.71 8.28 8.28 0 0 1-1.85-2.94 12 12 0 0 1-.68-4.31zm0 59.88a12.53 12.53 0 0 1 .68-4.41 7.9 7.9 0 0 1 1.85-2.94 7 7 0 0 1 2.73-1.64 11.54 11.54 0 0 1 6.8 0 7 7 0 0 1 2.77 1.64 7.93 7.93 0 0 1 1.85 2.94 12.55 12.55 0 0 1 .68 4.41 12.32 12.32 0 0 1-.68 4.34 8.26 8.26 0 0 1-1.85 3 7.11 7.11 0 0 1-2.77 1.71 10.85 10.85 0 0 1-6.8 0 7.13 7.13 0 0 1-2.73-1.71 8.23 8.23 0 0 1-1.85-3 12.3 12.3 0 0 1-.68-4.34zM1409.44 481.57a143.15 143.15 0 0 1-.72 14.32 80.76 80.76 0 0 1-2.53 13.64 55.39 55.39 0 0 1-5 12.13 34.88 34.88 0 0 1-8 9.74 36.3 36.3 0 0 1-11.62 6.46 48.22 48.22 0 0 1-15.86 2.36q-1.3 0-2.87-.07t-3.14-.24q-1.57-.17-3.08-.38a18.27 18.27 0 0 1-2.62-.53v-10.67a25.32 25.32 0 0 0 5.4 1.3 44 44 0 0 0 5.95.41q9.23 0 15.18-3.21a25 25 0 0 0 9.43-8.72 37.53 37.53 0 0 0 5-12.82 99.72 99.72 0 0 0 1.81-15.45h-.89a24.78 24.78 0 0 1-3.28 4.58 20 20 0 0 1-4.51 3.69 22.76 22.76 0 0 1-5.88 2.46 28 28 0 0 1-7.31.89 32.63 32.63 0 0 1-11.76-2 23.93 23.93 0 0 1-9-5.91 26.74 26.74 0 0 1-5.71-9.54 38.14 38.14 0 0 1-2-12.89 43 43 0 0 1 2.15-14 30.2 30.2 0 0 1 6.08-10.6 26.17 26.17 0 0 1 9.57-6.67 32.83 32.83 0 0 1 12.61-2.32 31.05 31.05 0 0 1 12.85 2.67 27.6 27.6 0 0 1 10.32 8.13 40.9 40.9 0 0 1 6.9 13.77 67.3 67.3 0 0 1 2.53 19.47zM1377 448a19.81 19.81 0 0 0-7.49 1.37 15 15 0 0 0-5.84 4.24 19.9 19.9 0 0 0-3.79 7.21 35.24 35.24 0 0 0-1.33 10.29 30.09 30.09 0 0 0 1.13 8.58 17.64 17.64 0 0 0 3.38 6.46 14.86 14.86 0 0 0 5.64 4.1 20.09 20.09 0 0 0 7.9 1.44 21.1 21.1 0 0 0 14.83-5.78 18.61 18.61 0 0 0 4.14-5.84 15.94 15.94 0 0 0 1.47-6.56 33.93 33.93 0 0 0-1.26-9.13 27.56 27.56 0 0 0-3.76-8.2 19.89 19.89 0 0 0-6.25-5.91A16.68 16.68 0 0 0 1377 448z"/><path fill="#5a5e63" d="M1093.27 588.88v32.33a18.64 18.64 0 0 1-2.48 9.71 16.13 16.13 0 0 1-7.16 6.39 25.61 25.61 0 0 1-11.07 2.22q-9.64 0-15-4.94t-5.33-13.52v-32.2h10.56v30.59q0 5.78 2.32 8.48t7.69 2.7q5.19 0 7.54-2.72t2.34-8.53v-30.51zM1112.51 638.85v-50h10.6v41.25h20.27v8.75zM1177.65 638.85H1167V597.7h-13.57v-8.82h37.73v8.82h-13.57zM1216.5 619.68v19.17h-10.6v-50h14.56q10.19 0 15.07 3.71t4.89 11.26a13.27 13.27 0 0 1-2.43 7.84 16.07 16.07 0 0 1-6.87 5.38l14.7 21.77h-11.76l-11.93-19.17zm0-8.61h3.42q5 0 7.42-1.67a6 6 0 0 0 2.39-5.26q0-3.56-2.44-5.06t-7.57-1.5h-3.21zM1289.71 638.85l-3.63-11.85h-18.22l-3.62 11.89h-11.42l17.64-50.18h13l17.71 50.18zm-6.15-20.78q-5-16.17-5.66-18.29t-.91-3.35q-1.13 4.38-6.46 21.64zM1361.72 638.85h-12.07l-6.77-26.25q-.38-1.4-1.28-5.79t-1-5.9q-.21 1.85-1 5.93t-1.26 5.83l-6.73 26.18h-12l-12.75-50h10.42l6.39 27.28q1.67 7.55 2.43 13.09.21-1.95.94-6t1.38-6.34l7.28-28h10l7.28 28q.48 1.88 1.2 5.74t1.09 6.63q.34-2.67 1.09-6.65t1.37-6.44l6.36-27.28h10.42zM1406.42 638.85h-22.73v-6l6.08-2.8V597.7l-6.08-2.8v-6h22.73v6l-6.08 2.8V630l6.08 2.8zM1463.42 613.39q0 12.34-7 18.9t-20.29 6.56H1422v-50h15.69q12.24 0 19 6.46t6.73 18.08zm-11 .27q0-16.1-14.22-16.1h-5.64v32.54h4.55q15.31 0 15.31-16.44zM1509.56 638.85h-28.78v-50h28.78v8.68h-18.18v11h16.92v8.68h-16.92v12.89h18.18z"/></g></svg>