<svg xmlns="http://www.w3.org/2000/svg" viewBox="0 0 600 400"><g data-name="Layer 2"><path fill="#b3b6ba" d="M0 0h600v400H0z"/><path fill="#474b4f" d="M287.65 166.38a9.73 9.73 0 0 1-.61 3.51 8.28 8.28 0 0 1-1.7 2.74 9.06 9.06 0 0 1-2.62 1.91 12.34 12.34 0 0 1-3.4 1.07v.16a11.91 11.91 0 0 1 7.09 3 8.33 8.33 0 0 1 2.43 6.21 12.24 12.24 0 0 1-.86 4.64 9.59 9.59 0 0 1-2.6 3.64 12.11 12.11 0 0 1-4.4 2.37 21 21 0 0 1-6.3.84 31.22 31.22 0 0 1-5.42-.45 16.13 16.13 0 0 1-4.79-1.63v-4.48a22.6 22.6 0 0 0 10.1 2.53 14.74 14.74 0 0 0 4.19-.53 7.94 7.94 0 0 0 2.91-1.5 5.8 5.8 0 0 0 1.69-2.4 8.93 8.93 0 0 0 .54-3.19 6.32 6.32 0 0 0-.7-3.07 5.78 5.78 0 0 0-2-2.11 9.4 9.4 0 0 0-3.15-1.23 20.3 20.3 0 0 0-4.21-.4h-3.51v-4h3.51a12.53 12.53 0 0 0 3.8-.53 7.75 7.75 0 0 0 2.78-1.5 6.4 6.4 0 0 0 1.7-2.32 7.39 7.39 0 0 0 .58-3 6 6 0 0 0-.47-2.45 5.09 5.09 0 0 0-1.35-1.83 6 6 0 0 0-2.08-1.15 8.64 8.64 0 0 0-2.69-.4 13 13 0 0 0-5 .88 19.55 19.55 0 0 0-4.1 2.31l-2.43-3.3a17.14 17.14 0 0 1 2.23-1.53 17.47 17.47 0 0 1 2.68-1.25 19.27 19.27 0 0 1 3.1-.86 18.51 18.51 0 0 1 3.49-.32 15.9 15.9 0 0 1 5 .71 10.23 10.23 0 0 1 3.6 2 8.3 8.3 0 0 1 2.19 3 9.79 9.79 0 0 1 .78 3.91zM296.66 169.89a4.92 4.92 0 0 1 .26-1.73 3 3 0 0 1 .71-1.13 2.56 2.56 0 0 1 1.05-.62 4.75 4.75 0 0 1 2.62 0 2.56 2.56 0 0 1 1.07.62 3.06 3.06 0 0 1 .71 1.13 4.92 4.92 0 0 1 .26 1.73 4.64 4.64 0 0 1-.26 1.66 3.2 3.2 0 0 1-.71 1.13 2.74 2.74 0 0 1-1.07.66 4.18 4.18 0 0 1-2.62 0 2.74 2.74 0 0 1-1.05-.66 3.19 3.19 0 0 1-.71-1.13 4.64 4.64 0 0 1-.26-1.66zm0 23.1a4.84 4.84 0 0 1 .26-1.7 3 3 0 0 1 .71-1.13 2.68 2.68 0 0 1 1.05-.63 4.45 4.45 0 0 1 2.62 0 2.69 2.69 0 0 1 1.07.63 3.06 3.06 0 0 1 .71 1.13 4.84 4.84 0 0 1 .26 1.7 4.75 4.75 0 0 1-.26 1.67 3.18 3.18 0 0 1-.71 1.15 2.75 2.75 0 0 1-1.07.66 4.18 4.18 0 0 1-2.62 0 2.75 2.75 0 0 1-1.05-.66 3.17 3.17 0 0 1-.71-1.15 4.75 4.75 0 0 1-.26-1.66zM334.53 195.91h-24v-4.11l9.23-10q2-2.14 3.53-3.9a29.87 29.87 0 0 0 2.65-3.45 15.38 15.38 0 0 0 1.67-3.39 11.41 11.41 0 0 0 .58-3.7 7.73 7.73 0 0 0-.45-2.74 5.63 5.63 0 0 0-1.28-2 5.42 5.42 0 0 0-2-1.25 7.22 7.22 0 0 0-2.53-.42 9.92 9.92 0 0 0-4.52 1 18.54 18.54 0 0 0-3.84 2.6l-2.69-3.14a21.77 21.77 0 0 1 2.27-1.78 15.63 15.63 0 0 1 2.61-1.44 16.83 16.83 0 0 1 3-1 14.62 14.62 0 0 1 3.27-.36 13.84 13.84 0 0 1 4.57.71 9.65 9.65 0 0 1 3.47 2 9 9 0 0 1 2.2 3.24 11.37 11.37 0 0 1 .78 4.31 13 13 0 0 1-.7 4.27 19.6 19.6 0 0 1-1.92 4 32.32 32.32 0 0 1-2.93 3.94q-1.7 2-3.68 4.11l-7.41 7.88v.21h18.17z"/><path fill="#5a5e63" d="M239.64 217.37a4.78 4.78 0 0 0-4.1 2 9.26 9.26 0 0 0-1.45 5.55q0 7.4 5.56 7.4a17.58 17.58 0 0 0 5.65-1.17v3.94a15.7 15.7 0 0 1-6.08 1.13q-4.83 0-7.39-2.93t-2.56-8.41a13.73 13.73 0 0 1 1.26-6 9.07 9.07 0 0 1 3.61-4 10.67 10.67 0 0 1 5.52-1.38 14.9 14.9 0 0 1 6.48 1.56l-1.51 3.81a25.17 25.17 0 0 0-2.5-1 7.44 7.44 0 0 0-2.49-.5zM266.64 235.92l-1.6-5.27H257l-1.6 5.27h-5.06l7.81-22.22h5.74l7.84 22.22zm-2.72-9.2q-2.22-7.16-2.5-8.1t-.4-1.48q-.5 1.94-2.86 9.58zM287 235.92l-5.33-17.36h-.14q.29 5.3.29 7.07v10.29h-4.19v-22.13H284l5.24 16.92h.09l5.56-16.92h6.39v22.13h-4.37v-10.48-1.71q0-.97.21-5.15H297l-5.71 17.33zM322.66 235.92h-12.75v-22.13h12.75v3.84h-8.05v4.86h7.49v3.84h-7.49V232h8.05zM335.07 227.42v8.49h-4.69v-22.12h6.45q4.51 0 6.67 1.64a6.55 6.55 0 0 1 1.09 8.46 7.1 7.1 0 0 1-3 2.38l6.51 9.64h-5.21l-5.28-8.49zm0-3.81h1.51a5.79 5.79 0 0 0 3.28-.74 2.65 2.65 0 0 0 1.06-2.33 2.42 2.42 0 0 0-1.08-2.24 6.56 6.56 0 0 0-3.35-.67h-1.42zM367.49 235.92l-1.6-5.27h-8.07l-1.6 5.27h-5.06l7.84-22.23h5.74l7.84 22.22zm-2.72-9.2q-2.22-7.16-2.5-8.1t-.4-1.48q-.5 1.94-2.86 9.58z"/></g></svg>