<svg xmlns="http://www.w3.org/2000/svg" viewBox="0 0 640 480"><g data-name="Layer 2"><path fill="#b3b6ba" d="M0 0h640v480H0z"/><path fill="#474b4f" d="M311 230.77h-5.62v8.65h-4.64v-8.65h-17.8v-4.19l17.48-25.92h5v25.73H311zm-10.26-4.38V217v-3.1q0-1.62.09-3.16.05-1.54.12-2.89t.09-2.24h-.24q-.18.53-.46 1.17t-.61 1.29q-.33.65-.67 1.25t-.63 1l-10.84 16zM316.66 213.39a4.92 4.92 0 0 1 .26-1.73 3 3 0 0 1 .71-1.13 2.56 2.56 0 0 1 1.05-.62 4.75 4.75 0 0 1 2.62 0 2.56 2.56 0 0 1 1.07.62 3.06 3.06 0 0 1 .71 1.13 4.92 4.92 0 0 1 .26 1.73 4.64 4.64 0 0 1-.26 1.66 3.2 3.2 0 0 1-.71 1.13 2.74 2.74 0 0 1-1.07.66 4.18 4.18 0 0 1-2.62 0 2.74 2.74 0 0 1-1.05-.66 3.19 3.19 0 0 1-.71-1.13 4.64 4.64 0 0 1-.26-1.66zm0 23.1a4.84 4.84 0 0 1 .26-1.7 3 3 0 0 1 .71-1.13 2.68 2.68 0 0 1 1.05-.63 4.45 4.45 0 0 1 2.62 0 2.69 2.69 0 0 1 1.07.63 3.06 3.06 0 0 1 .71 1.13 4.84 4.84 0 0 1 .26 1.7 4.75 4.75 0 0 1-.26 1.67 3.18 3.18 0 0 1-.71 1.15 2.75 2.75 0 0 1-1.07.66 4.18 4.18 0 0 1-2.62 0 2.75 2.75 0 0 1-1.05-.66 3.17 3.17 0 0 1-.71-1.15 4.75 4.75 0 0 1-.26-1.67zM353.29 209.88a9.73 9.73 0 0 1-.61 3.51 8.25 8.25 0 0 1-1.7 2.74 9 9 0 0 1-2.62 1.91 12.33 12.33 0 0 1-3.4 1.07v.16a11.9 11.9 0 0 1 7.09 3 8.33 8.33 0 0 1 2.43 6.21 12.22 12.22 0 0 1-.86 4.64 9.59 9.59 0 0 1-2.6 3.64 12.12 12.12 0 0 1-4.4 2.37 21 21 0 0 1-6.3.84 31.23 31.23 0 0 1-5.42-.45 16.15 16.15 0 0 1-4.79-1.63v-4.48a22.61 22.61 0 0 0 10.1 2.53 14.73 14.73 0 0 0 4.19-.53 8 8 0 0 0 2.91-1.5 5.82 5.82 0 0 0 1.69-2.4 9 9 0 0 0 .54-3.19 6.33 6.33 0 0 0-.7-3.07 5.79 5.79 0 0 0-2-2.11 9.4 9.4 0 0 0-3.15-1.23 20.29 20.29 0 0 0-4.21-.4H336v-4h3.51a12.53 12.53 0 0 0 3.8-.53 7.74 7.74 0 0 0 2.78-1.5 6.4 6.4 0 0 0 1.7-2.32 7.38 7.38 0 0 0 .58-3 6 6 0 0 0-.47-2.45 5.09 5.09 0 0 0-1.34-1.83 6 6 0 0 0-2.08-1.15 8.64 8.64 0 0 0-2.69-.4 13 13 0 0 0-5 .88 19.57 19.57 0 0 0-4.1 2.31l-2.43-3.3a17.09 17.09 0 0 1 2.23-1.53 17.42 17.42 0 0 1 2.68-1.25 19.3 19.3 0 0 1 3.1-.86 18.52 18.52 0 0 1 3.49-.32 15.9 15.9 0 0 1 5 .71 10.23 10.23 0 0 1 3.6 2 8.29 8.29 0 0 1 2.19 3 9.79 9.79 0 0 1 .74 3.91z"/><path fill="#5a5e63" d="M213.8 268.32q0 5.5-2.72 8.45t-7.81 3q-5.09 0-7.81-3t-2.72-8.48q0-5.53 2.73-8.44t7.83-2.91q5.1 0 7.8 2.94t2.7 8.44zm-16.15 0a9.24 9.24 0 0 0 1.41 5.59 4.93 4.93 0 0 0 4.21 1.88q5.62 0 5.62-7.46t-5.58-7.48a5 5 0 0 0-4.22 1.88 9.21 9.21 0 0 0-1.44 5.59zM221.49 279.42v-22.13h4.69v18.25h9v3.88zM260.46 268.14q0 5.47-3.11 8.37t-9 2.91h-6.25v-22.13h6.9q5.42 0 8.42 2.86t3.04 7.99zm-4.87.12q0-7.13-6.3-7.13h-2.5v14.41h2q6.8 0 6.8-7.28zM288.67 279.42l-5.33-17.36h-.14q.29 5.3.29 7.07v10.29h-4.19v-22.13h6.39l5.24 16.92h.07l5.56-16.92H303v22.13h-4.37v-10.48-1.71q0-.97.2-5.15h-.14L293 279.42zM331.71 268.32q0 5.5-2.72 8.45t-7.81 3q-5.09 0-7.81-3t-2.72-8.48q0-5.53 2.73-8.44t7.83-2.91q5.1 0 7.8 2.94t2.7 8.44zm-16.15 0a9.24 9.24 0 0 0 1.41 5.59 4.93 4.93 0 0 0 4.21 1.88q5.61 0 5.62-7.46t-5.59-7.48a5 5 0 0 0-4.22 1.88 9.2 9.2 0 0 0-1.43 5.59zM359 279.42h-6l-9.63-16.74h-.14q.29 4.44.29 6.33v10.41h-4.12v-22.13h5.92l9.61 16.58h.07q-.23-4.32-.23-6.1v-10.48H359zM376 279.42h-10.08v-2.66l2.69-1.24v-14.33l-2.69-1.24v-2.66H376v2.66l-2.69 1.24v14.32l2.69 1.24zM391.41 279.42h-4.69v-18.23h-6v-3.91h16.71v3.91h-6zM423.7 268.32q0 5.5-2.72 8.45t-7.81 3q-5.09 0-7.81-3t-2.72-8.48q0-5.53 2.73-8.44t7.83-2.91q5.1 0 7.8 2.94t2.7 8.44zm-16.15 0a9.24 9.24 0 0 0 1.41 5.59 4.92 4.92 0 0 0 4.21 1.88q5.62 0 5.62-7.46t-5.58-7.48a5 5 0 0 0-4.22 1.88 9.21 9.21 0 0 0-1.44 5.59zM436.08 270.92v8.49h-4.69v-22.12h6.45q4.51 0 6.67 1.64a6.55 6.55 0 0 1 1.09 8.46 7.1 7.1 0 0 1-3 2.38l6.51 9.64h-5.21l-5.28-8.49zm0-3.81h1.51a5.79 5.79 0 0 0 3.28-.74 2.65 2.65 0 0 0 1.06-2.33 2.42 2.42 0 0 0-1.08-2.24 6.56 6.56 0 0 0-3.35-.67h-1.42z"/></g></svg>