<?xml version="1.0" encoding="utf-8"?>
<!-- Generator: Adobe Illustrator 22.1.0, SVG Export Plug-In . SVG Version: 6.00 Build 0)  -->
<svg version="1.1" id="Layer_1" xmlns="http://www.w3.org/2000/svg" xmlns:xlink="http://www.w3.org/1999/xlink" x="0px" y="0px"
	 width="280px" height="231.277px" viewBox="0 0 280 231.277" style="enable-background:new 0 0 280 231.277;" xml:space="preserve"
	>
<style type="text/css">
	.st0{fill:none;}
	.st1{fill:#FFFFFF;}
</style>
<rect class="st0" width="280" height="231.277"/>
<g>
	<g>
		<path class="st1" d="M19.178,181.289h4.063c2.455,0,4.312,0.652,5.569,1.953c1.257,1.303,1.886,3.249,1.886,5.837
			c0,1.31-0.186,2.453-0.558,3.427c-0.372,0.974-0.889,1.786-1.551,2.433c-0.663,0.647-1.448,1.131-2.355,1.45
			c-0.908,0.321-1.905,0.48-2.991,0.48h-4.063V181.289z M22.034,194.683h0.96c0.803,0,1.5-0.131,2.087-0.39
			c0.587-0.262,1.072-0.637,1.451-1.128c0.38-0.491,0.662-1.083,0.848-1.775c0.186-0.692,0.279-1.462,0.279-2.311
			c0-0.848-0.093-1.618-0.279-2.311c-0.186-0.691-0.468-1.283-0.848-1.774c-0.38-0.491-0.864-0.867-1.451-1.127
			c-0.587-0.262-1.284-0.391-2.087-0.391h-0.96V194.683z"/>
		<path class="st1" d="M41.143,196.312c-0.298,0.119-0.737,0.272-1.317,0.458c-0.581,0.186-1.287,0.279-2.12,0.279
			c-0.924,0-1.719-0.156-2.389-0.468c-0.67-0.313-1.221-0.73-1.652-1.251c-0.431-0.521-0.751-1.131-0.959-1.831
			c-0.209-0.699-0.313-1.435-0.313-2.21c0-0.863,0.108-1.662,0.324-2.399c0.216-0.737,0.529-1.38,0.937-1.931
			c0.41-0.551,0.907-0.982,1.496-1.294c0.587-0.313,1.246-0.469,1.976-0.469c0.625,0,1.213,0.1,1.763,0.302
			c0.551,0.201,1.038,0.539,1.462,1.015c0.424,0.476,0.759,1.105,1.005,1.886c0.246,0.781,0.368,1.76,0.368,2.936v0.535h-6.652
			c0,0.982,0.219,1.753,0.659,2.311c0.438,0.558,1.194,0.838,2.266,0.838c0.848,0,1.498-0.101,1.953-0.302
			c0.454-0.201,0.807-0.398,1.06-0.591L41.143,196.312z M39.044,190.129c0-2.039-0.64-3.058-1.919-3.058
			c-0.357,0-0.666,0.088-0.927,0.267c-0.26,0.178-0.476,0.41-0.647,0.692c-0.171,0.282-0.294,0.61-0.368,0.982
			c-0.074,0.372-0.111,0.743-0.111,1.116H39.044z"/>
		<path class="st1" d="M43.642,187.339c0-0.416-0.007-0.796-0.022-1.139c-0.015-0.342-0.038-0.617-0.067-0.826h2.589
			c0.029,0.165,0.052,0.406,0.067,0.726s0.022,0.674,0.022,1.06h0.068c0.103-0.238,0.241-0.476,0.413-0.715
			c0.171-0.238,0.375-0.45,0.614-0.636c0.237-0.186,0.524-0.335,0.859-0.446c0.335-0.111,0.725-0.168,1.171-0.168
			c0.715,0,1.329,0.159,1.841,0.481c0.514,0.319,0.93,0.747,1.251,1.283c0.32,0.536,0.558,1.161,0.714,1.875
			c0.157,0.715,0.235,1.473,0.235,2.277c0,1.89-0.35,3.351-1.05,4.386c-0.7,1.035-1.674,1.551-2.923,1.551
			c-0.418,0-0.786-0.053-1.106-0.156c-0.32-0.103-0.602-0.246-0.848-0.424c-0.246-0.179-0.45-0.375-0.614-0.592
			c-0.164-0.215-0.298-0.434-0.402-0.657H46.41v6.473h-2.769V187.339z M46.41,191.156c0,0.566,0.041,1.083,0.123,1.551
			c0.081,0.468,0.208,0.874,0.38,1.216c0.171,0.343,0.39,0.61,0.659,0.803c0.267,0.195,0.594,0.291,0.982,0.291
			c0.773,0,1.313-0.346,1.618-1.038c0.305-0.692,0.458-1.611,0.458-2.757c0-1.339-0.138-2.341-0.413-3.001
			c-0.275-0.663-0.815-0.994-1.618-0.994c-0.403,0-0.745,0.103-1.027,0.312c-0.283,0.209-0.51,0.491-0.681,0.848
			c-0.171,0.357-0.294,0.774-0.368,1.251C46.447,190.114,46.41,190.62,46.41,191.156z"/>
		<path class="st1" d="M55.874,186.044c0.387-0.179,0.871-0.365,1.451-0.558c0.579-0.193,1.309-0.29,2.187-0.29
			c0.894,0,1.626,0.104,2.199,0.313c0.573,0.208,1.019,0.513,1.339,0.914c0.32,0.403,0.543,0.889,0.67,1.463
			c0.126,0.573,0.189,1.216,0.189,1.93v5.023c0,0.418,0.018,0.803,0.056,1.161c0.037,0.357,0.07,0.647,0.1,0.87h-2.5
			c-0.075-0.223-0.119-0.468-0.134-0.737c-0.015-0.267-0.022-0.543-0.022-0.826h-0.045c-0.342,0.477-0.758,0.886-1.249,1.228
			c-0.491,0.343-1.146,0.514-1.965,0.514c-0.446,0-0.878-0.074-1.294-0.223c-0.416-0.149-0.781-0.369-1.093-0.659
			c-0.313-0.291-0.566-0.644-0.76-1.06c-0.194-0.418-0.29-0.894-0.29-1.43c0-0.773,0.152-1.413,0.458-1.919
			c0.305-0.506,0.725-0.907,1.261-1.206c0.536-0.297,1.173-0.502,1.909-0.613c0.737-0.112,1.543-0.168,2.422-0.168h0.558v-0.424
			c0-0.282-0.037-0.558-0.111-0.826c-0.074-0.268-0.197-0.502-0.368-0.703c-0.171-0.201-0.391-0.36-0.659-0.48
			c-0.268-0.119-0.602-0.179-1.005-0.179c-0.342,0-0.674,0.038-0.993,0.111c-0.32,0.076-0.618,0.168-0.894,0.28
			c-0.275,0.111-0.521,0.234-0.737,0.367c-0.216,0.135-0.39,0.255-0.524,0.358L55.874,186.044z M61.321,191.245h-0.246
			c-1.191,0-2.117,0.151-2.779,0.457c-0.662,0.305-0.994,0.874-0.994,1.708c0,0.521,0.159,0.944,0.48,1.272
			c0.32,0.328,0.748,0.491,1.284,0.491c0.833,0,1.418-0.29,1.752-0.871c0.335-0.58,0.503-1.384,0.503-2.41V191.245z"/>
		<path class="st1" d="M66.299,187.271c0-0.357-0.007-0.699-0.022-1.026c-0.015-0.328-0.038-0.617-0.066-0.872h2.5
			c0.014,0.343,0.033,0.693,0.055,1.05c0.023,0.357,0.033,0.708,0.033,1.05h0.045c0.09-0.224,0.209-0.469,0.358-0.737
			c0.148-0.268,0.342-0.514,0.579-0.737c0.239-0.224,0.521-0.413,0.849-0.569c0.327-0.157,0.707-0.235,1.138-0.235
			c0.089,0,0.171,0.008,0.245,0.022c0.075,0.016,0.149,0.03,0.224,0.046v2.588c-0.268-0.073-0.529-0.111-0.781-0.111
			c-0.283,0-0.566,0.049-0.849,0.146c-0.282,0.096-0.539,0.252-0.77,0.468c-0.231,0.216-0.416,0.506-0.558,0.871
			c-0.142,0.365-0.212,0.815-0.212,1.35v6.294h-2.768V187.271z"/>
		<path class="st1" d="M74.827,183.008l2.767-0.848v3.214h2.299v2.032h-2.299v5.96c0,0.624,0.108,1.046,0.324,1.261
			c0.216,0.217,0.524,0.325,0.927,0.325c0.252,0,0.465-0.026,0.636-0.079c0.171-0.052,0.309-0.107,0.413-0.166v1.964
			c-0.209,0.103-0.466,0.193-0.77,0.267c-0.305,0.075-0.667,0.111-1.083,0.111c-1.027,0-1.818-0.257-2.377-0.77
			c-0.558-0.513-0.836-1.373-0.836-2.578v-6.295h-1.831v-2.032h1.831V183.008z"/>
		<path class="st1" d="M81.321,187.249c0-0.416-0.008-0.781-0.022-1.093c-0.015-0.313-0.038-0.574-0.068-0.783H84
			c0.015,0.298,0.033,0.6,0.056,0.904c0.022,0.305,0.033,0.608,0.033,0.904h0.045c0.103-0.223,0.241-0.453,0.413-0.691
			c0.171-0.239,0.372-0.45,0.602-0.637c0.231-0.186,0.502-0.343,0.815-0.469c0.312-0.126,0.67-0.189,1.072-0.189
			c0.491,0,0.901,0.068,1.228,0.201c0.327,0.134,0.602,0.294,0.826,0.48c0.223,0.187,0.398,0.388,0.524,0.604
			c0.126,0.216,0.234,0.398,0.324,0.546c0.134-0.193,0.29-0.397,0.469-0.613c0.178-0.216,0.39-0.413,0.636-0.592
			s0.529-0.328,0.849-0.447c0.319-0.118,0.695-0.178,1.127-0.178c0.625,0,1.15,0.109,1.574,0.324
			c0.423,0.217,0.762,0.522,1.015,0.916c0.252,0.393,0.435,0.874,0.547,1.44c0.111,0.566,0.168,1.198,0.168,1.898v7.097h-2.769
			v-7.253c0-0.716-0.116-1.251-0.346-1.609c-0.231-0.357-0.606-0.535-1.127-0.535c-0.312,0-0.584,0.066-0.815,0.2
			c-0.231,0.135-0.425,0.313-0.581,0.537c-0.156,0.223-0.275,0.483-0.357,0.78c-0.083,0.298-0.123,0.603-0.123,0.916v6.964h-2.768
			v-7.253c0-0.716-0.116-1.251-0.345-1.609c-0.232-0.357-0.607-0.535-1.128-0.535c-0.312,0-0.584,0.066-0.815,0.2
			c-0.231,0.135-0.424,0.313-0.58,0.537c-0.156,0.223-0.275,0.483-0.357,0.78c-0.083,0.298-0.123,0.603-0.123,0.916v6.964h-2.769
			V187.249z"/>
		<path class="st1" d="M106.925,196.312c-0.298,0.119-0.737,0.272-1.317,0.458c-0.581,0.186-1.287,0.279-2.12,0.279
			c-0.924,0-1.719-0.156-2.389-0.468c-0.67-0.313-1.221-0.73-1.652-1.251c-0.431-0.521-0.751-1.131-0.959-1.831
			c-0.209-0.699-0.313-1.435-0.313-2.21c0-0.863,0.108-1.662,0.324-2.399c0.216-0.737,0.529-1.38,0.937-1.931
			c0.41-0.551,0.907-0.982,1.496-1.294c0.587-0.313,1.246-0.469,1.976-0.469c0.625,0,1.213,0.1,1.763,0.302
			c0.551,0.201,1.038,0.539,1.462,1.015c0.424,0.476,0.759,1.105,1.005,1.886c0.246,0.781,0.368,1.76,0.368,2.936v0.535h-6.652
			c0,0.982,0.219,1.753,0.659,2.311c0.438,0.558,1.194,0.838,2.266,0.838c0.848,0,1.498-0.101,1.953-0.302
			c0.454-0.201,0.807-0.398,1.06-0.591L106.925,196.312z M104.827,190.129c0-2.039-0.64-3.058-1.919-3.058
			c-0.357,0-0.666,0.088-0.927,0.267c-0.26,0.178-0.476,0.41-0.647,0.692c-0.171,0.282-0.294,0.61-0.368,0.982
			c-0.075,0.372-0.111,0.743-0.111,1.116H104.827z"/>
		<path class="st1" d="M109.381,187.271c0-0.357-0.008-0.699-0.023-1.026c-0.015-0.328-0.037-0.617-0.067-0.872h2.589
			c0.014,0.298,0.033,0.592,0.055,0.882c0.023,0.29,0.033,0.584,0.033,0.882h0.045c0.104-0.179,0.235-0.38,0.391-0.604
			c0.156-0.223,0.353-0.435,0.591-0.636c0.239-0.201,0.526-0.368,0.859-0.502c0.335-0.133,0.741-0.201,1.217-0.201
			c0.654,0,1.198,0.111,1.629,0.335c0.431,0.224,0.778,0.532,1.038,0.926c0.26,0.395,0.446,0.849,0.558,1.362
			c0.111,0.513,0.168,1.061,0.168,1.641v7.41h-2.767v-6.898c0-0.893-0.123-1.532-0.368-1.918c-0.246-0.388-0.652-0.581-1.217-0.581
			c-0.357,0-0.662,0.07-0.914,0.211c-0.254,0.142-0.458,0.335-0.615,0.581c-0.156,0.246-0.267,0.532-0.334,0.86
			c-0.068,0.326-0.101,0.677-0.101,1.049v6.696h-2.767V187.271z"/>
		<path class="st1" d="M121.725,183.008l2.767-0.848v3.214h2.299v2.032h-2.299v5.96c0,0.624,0.108,1.046,0.324,1.261
			c0.216,0.217,0.524,0.325,0.927,0.325c0.252,0,0.465-0.026,0.636-0.079c0.171-0.052,0.309-0.107,0.413-0.166v1.964
			c-0.209,0.103-0.466,0.193-0.77,0.267c-0.305,0.075-0.667,0.111-1.083,0.111c-1.027,0-1.819-0.257-2.377-0.77
			c-0.558-0.513-0.836-1.373-0.836-2.578v-6.295h-1.831v-2.032h1.831V183.008z"/>
		<path class="st1" d="M133.51,191.111c0-1.176,0.153-2.143,0.458-2.902c0.305-0.76,0.703-1.362,1.194-1.808
			c0.491-0.447,1.038-0.759,1.641-0.938c0.602-0.178,1.194-0.267,1.775-0.267c0.58,0,1.171,0.09,1.773,0.267
			c0.604,0.179,1.148,0.491,1.632,0.938c0.482,0.446,0.877,1.049,1.182,1.808c0.305,0.758,0.459,1.726,0.459,2.902
			c0,1.206-0.154,2.191-0.459,2.958c-0.305,0.766-0.7,1.373-1.182,1.819c-0.484,0.447-1.029,0.753-1.632,0.916
			c-0.602,0.163-1.193,0.245-1.773,0.245c-0.581,0-1.173-0.083-1.775-0.245c-0.602-0.163-1.15-0.468-1.641-0.916
			c-0.491-0.445-0.889-1.052-1.194-1.819C133.663,193.303,133.51,192.317,133.51,191.111z M136.368,191.111
			c0,0.476,0.029,0.952,0.088,1.429c0.06,0.477,0.176,0.904,0.346,1.284c0.171,0.38,0.398,0.685,0.68,0.914
			c0.283,0.232,0.648,0.347,1.095,0.347c0.446,0,0.81-0.115,1.093-0.347c0.282-0.229,0.506-0.535,0.671-0.914
			c0.163-0.38,0.275-0.807,0.335-1.284c0.057-0.476,0.087-0.952,0.087-1.429c0-0.476-0.03-0.952-0.087-1.428
			c-0.06-0.477-0.172-0.901-0.335-1.274c-0.165-0.372-0.388-0.672-0.671-0.904c-0.283-0.229-0.647-0.345-1.093-0.345
			c-0.446,0-0.811,0.116-1.095,0.345c-0.282,0.232-0.509,0.532-0.68,0.904c-0.171,0.373-0.287,0.796-0.346,1.274
			C136.397,190.159,136.368,190.635,136.368,191.111z"/>
		<path class="st1" d="M146.434,187.405h-1.918v-2.032h1.918v-2.343c0-0.416,0.053-0.815,0.156-1.194
			c0.105-0.38,0.287-0.715,0.548-1.004c0.259-0.291,0.601-0.526,1.026-0.704c0.424-0.178,0.948-0.267,1.574-0.267
			c0.372,0,0.73,0.03,1.072,0.089c0.342,0.06,0.647,0.119,0.916,0.178l-0.112,2.01c-0.163-0.046-0.335-0.086-0.514-0.124
			c-0.179-0.037-0.372-0.055-0.581-0.055c-0.402,0-0.721,0.131-0.959,0.39c-0.239,0.262-0.358,0.607-0.358,1.038v1.986h2.1v2.032
			h-2.1v9.464h-2.767V187.405z"/>
		<path class="st1" d="M164.851,188.142h5.046v8.147c-0.404,0.209-0.95,0.395-1.641,0.559c-0.693,0.164-1.554,0.246-2.579,0.246
			c-1.251,0-2.352-0.201-3.304-0.602c-0.952-0.402-1.751-0.96-2.4-1.675c-0.647-0.714-1.133-1.558-1.462-2.533
			c-0.326-0.974-0.491-2.042-0.491-3.203c0-1.161,0.165-2.228,0.491-3.203c0.328-0.974,0.815-1.819,1.462-2.533
			c0.649-0.714,1.448-1.272,2.4-1.674c0.952-0.402,2.054-0.602,3.304-0.602c0.893,0,1.675,0.078,2.343,0.234
			c0.67,0.156,1.154,0.301,1.452,0.436l-0.156,2.567c-0.461-0.283-0.998-0.513-1.608-0.692c-0.61-0.179-1.271-0.268-1.987-0.268
			c-0.757,0-1.427,0.149-2.008,0.447c-0.58,0.297-1.069,0.702-1.462,1.216c-0.395,0.513-0.693,1.12-0.893,1.82
			c-0.202,0.699-0.303,1.45-0.303,2.253c0,0.879,0.096,1.671,0.291,2.377c0.193,0.707,0.48,1.31,0.858,1.808
			c0.381,0.499,0.851,0.882,1.418,1.15c0.565,0.268,1.212,0.402,1.941,0.402c0.342,0,0.656-0.03,0.938-0.09
			c0.282-0.059,0.521-0.126,0.714-0.2v-4.197h-2.366V188.142z"/>
		<path class="st1" d="M176.48,194.057h0.046l2.21-8.684h2.678l-3.55,11.609l-0.647,2.075c-0.119,0.403-0.271,0.77-0.457,1.105
			c-0.186,0.335-0.411,0.625-0.67,0.871c-0.259,0.246-0.569,0.44-0.927,0.581c-0.356,0.141-0.766,0.212-1.228,0.212
			c-0.372,0-0.707-0.03-1.003-0.09c-0.298-0.06-0.551-0.126-0.76-0.201l0.156-2.121c0.163,0.06,0.326,0.112,0.491,0.156
			c0.163,0.046,0.349,0.068,0.558,0.068c0.418,0.015,0.732-0.111,0.95-0.38c0.213-0.267,0.413-0.7,0.59-1.294l0.202-0.982
			l-3.818-11.609h2.859L176.48,194.057z"/>
		<path class="st1" d="M182.508,187.271c0-0.357-0.009-0.699-0.023-1.026c-0.016-0.328-0.037-0.617-0.066-0.872h2.588
			c0.014,0.298,0.034,0.592,0.055,0.882c0.023,0.29,0.034,0.584,0.034,0.882h0.044c0.106-0.179,0.236-0.38,0.392-0.604
			c0.156-0.223,0.353-0.435,0.59-0.636c0.239-0.201,0.526-0.368,0.86-0.502c0.335-0.133,0.741-0.201,1.216-0.201
			c0.654,0,1.198,0.111,1.629,0.335c0.431,0.224,0.778,0.532,1.04,0.926c0.259,0.395,0.445,0.849,0.558,1.362
			c0.11,0.513,0.168,1.061,0.168,1.641v7.41h-2.767v-6.898c0-0.893-0.124-1.532-0.369-1.918c-0.245-0.388-0.652-0.581-1.216-0.581
			c-0.358,0-0.663,0.07-0.916,0.211c-0.252,0.142-0.457,0.335-0.615,0.581c-0.156,0.246-0.266,0.532-0.333,0.86
			c-0.069,0.326-0.101,0.677-0.101,1.049v6.696h-2.767V187.271z"/>
		<path class="st1" d="M202.263,196.312c-0.298,0.119-0.737,0.272-1.317,0.458c-0.581,0.186-1.287,0.279-2.12,0.279
			c-0.925,0-1.719-0.156-2.389-0.468c-0.67-0.313-1.221-0.73-1.652-1.251c-0.431-0.521-0.753-1.131-0.959-1.831
			c-0.209-0.699-0.314-1.435-0.314-2.21c0-0.863,0.108-1.662,0.324-2.399c0.216-0.737,0.53-1.38,0.938-1.931
			c0.408-0.551,0.906-0.982,1.496-1.294c0.587-0.313,1.246-0.469,1.976-0.469c0.624,0,1.212,0.1,1.762,0.302
			c0.551,0.201,1.039,0.539,1.462,1.015c0.424,0.476,0.76,1.105,1.005,1.886c0.246,0.781,0.369,1.76,0.369,2.936v0.535h-6.652
			c0,0.982,0.218,1.753,0.659,2.311c0.438,0.558,1.193,0.838,2.265,0.838c0.849,0,1.498-0.101,1.953-0.302
			c0.454-0.201,0.808-0.398,1.06-0.591L202.263,196.312z M200.163,190.129c0-2.039-0.64-3.058-1.918-3.058
			c-0.358,0-0.668,0.088-0.927,0.267c-0.262,0.178-0.477,0.41-0.647,0.692c-0.172,0.282-0.294,0.61-0.369,0.982
			c-0.073,0.372-0.11,0.743-0.11,1.116H200.163z"/>
		<path class="st1" d="M212.531,196.58c-0.328,0.119-0.723,0.227-1.184,0.324c-0.461,0.096-0.975,0.145-1.54,0.145
			c-0.952,0-1.767-0.156-2.444-0.468c-0.677-0.313-1.237-0.737-1.675-1.274c-0.438-0.535-0.762-1.16-0.971-1.875
			c-0.209-0.714-0.312-1.48-0.312-2.299c0-0.818,0.108-1.588,0.324-2.311c0.216-0.721,0.551-1.349,1.005-1.886
			c0.452-0.535,1.03-0.959,1.73-1.271c0.698-0.313,1.531-0.469,2.499-0.469c0.431,0,0.879,0.052,1.34,0.156
			c0.461,0.104,0.817,0.209,1.072,0.313l-0.156,2.187c-0.255-0.119-0.544-0.241-0.872-0.367c-0.326-0.127-0.684-0.19-1.072-0.19
			c-1.055,0-1.822,0.335-2.299,1.005c-0.475,0.669-0.714,1.622-0.714,2.857c0,0.535,0.064,1.035,0.19,1.496
			c0.126,0.461,0.319,0.863,0.581,1.205c0.259,0.342,0.587,0.61,0.982,0.803c0.392,0.194,0.858,0.291,1.395,0.291
			c0.342,0,0.707-0.064,1.092-0.19c0.388-0.126,0.677-0.249,0.872-0.368L212.531,196.58z"/>
		<path class="st1" d="M213.646,191.111c0-1.176,0.154-2.143,0.459-2.902c0.305-0.76,0.702-1.362,1.193-1.808
			c0.491-0.447,1.04-0.759,1.641-0.938c0.604-0.178,1.196-0.267,1.776-0.267s1.17,0.09,1.774,0.267
			c0.603,0.179,1.145,0.491,1.629,0.938c0.484,0.446,0.879,1.049,1.184,1.808c0.305,0.758,0.457,1.726,0.457,2.902
			c0,1.206-0.151,2.191-0.457,2.958c-0.305,0.766-0.7,1.373-1.184,1.819c-0.484,0.447-1.026,0.753-1.629,0.916
			c-0.604,0.163-1.193,0.245-1.774,0.245s-1.173-0.083-1.776-0.245c-0.601-0.163-1.15-0.468-1.641-0.916
			c-0.491-0.445-0.888-1.052-1.193-1.819C213.8,193.303,213.646,192.317,213.646,191.111z M216.506,191.111
			c0,0.476,0.028,0.952,0.087,1.429c0.06,0.477,0.177,0.904,0.346,1.284c0.172,0.38,0.399,0.685,0.682,0.914
			c0.282,0.232,0.647,0.347,1.094,0.347c0.445,0,0.81-0.115,1.092-0.347c0.282-0.229,0.507-0.535,0.67-0.914
			c0.163-0.38,0.275-0.807,0.335-1.284c0.06-0.476,0.089-0.952,0.089-1.429c0-0.476-0.03-0.952-0.089-1.428
			c-0.06-0.477-0.172-0.901-0.335-1.274c-0.163-0.372-0.388-0.672-0.67-0.904c-0.282-0.229-0.647-0.345-1.092-0.345
			c-0.448,0-0.812,0.116-1.094,0.345c-0.282,0.232-0.509,0.532-0.682,0.904c-0.17,0.373-0.287,0.796-0.346,1.274
			C216.533,190.159,216.506,190.635,216.506,191.111z"/>
		<path class="st1" d="M225.946,180.128h2.77v16.742h-2.77V180.128z"/>
		<path class="st1" d="M230.902,191.111c0-1.176,0.152-2.143,0.457-2.902c0.305-0.76,0.704-1.362,1.196-1.808
			c0.491-0.447,1.037-0.759,1.641-0.938c0.601-0.178,1.193-0.267,1.774-0.267c0.581,0,1.173,0.09,1.774,0.267
			c0.604,0.179,1.147,0.491,1.632,0.938c0.482,0.446,0.877,1.049,1.182,1.808c0.305,0.758,0.459,1.726,0.459,2.902
			c0,1.206-0.154,2.191-0.459,2.958c-0.305,0.766-0.7,1.373-1.182,1.819c-0.484,0.447-1.028,0.753-1.632,0.916
			c-0.601,0.163-1.193,0.245-1.774,0.245c-0.581,0-1.173-0.083-1.774-0.245c-0.604-0.163-1.15-0.468-1.641-0.916
			c-0.491-0.445-0.89-1.052-1.196-1.819C231.054,193.303,230.902,192.317,230.902,191.111z M233.759,191.111
			c0,0.476,0.03,0.952,0.09,1.429c0.06,0.477,0.174,0.904,0.346,1.284c0.17,0.38,0.397,0.685,0.679,0.914
			c0.285,0.232,0.649,0.347,1.094,0.347c0.447,0,0.81-0.115,1.095-0.347c0.282-0.229,0.505-0.535,0.67-0.914
			c0.163-0.38,0.275-0.807,0.335-1.284c0.057-0.476,0.087-0.952,0.087-1.429c0-0.476-0.03-0.952-0.087-1.428
			c-0.06-0.477-0.172-0.901-0.335-1.274c-0.165-0.372-0.388-0.672-0.67-0.904c-0.285-0.229-0.647-0.345-1.095-0.345
			c-0.445,0-0.81,0.116-1.094,0.345c-0.282,0.232-0.509,0.532-0.679,0.904c-0.172,0.373-0.287,0.796-0.346,1.274
			C233.789,190.159,233.759,190.635,233.759,191.111z"/>
		<path class="st1" d="M243.291,198.656c0.326,0.178,0.792,0.387,1.395,0.625c0.601,0.238,1.267,0.357,1.996,0.357
			c0.656,0,1.179-0.104,1.574-0.313c0.395-0.208,0.7-0.48,0.916-0.815c0.216-0.335,0.36-0.722,0.436-1.16
			c0.073-0.439,0.11-0.882,0.11-1.329v-1.093h-0.044c-0.119,0.223-0.257,0.45-0.413,0.68c-0.156,0.231-0.353,0.439-0.592,0.625
			c-0.239,0.186-0.523,0.338-0.858,0.458c-0.335,0.119-0.727,0.178-1.173,0.178c-0.402,0-0.838-0.078-1.306-0.234
			c-0.47-0.156-0.904-0.446-1.306-0.87c-0.402-0.424-0.737-1.008-1.005-1.753c-0.269-0.744-0.402-1.696-0.402-2.857
			c0-0.789,0.073-1.544,0.223-2.266c0.149-0.722,0.39-1.354,0.725-1.898c0.335-0.543,0.764-0.979,1.285-1.306
			c0.521-0.327,1.159-0.491,1.918-0.491c0.418,0,0.782,0.056,1.094,0.168c0.312,0.111,0.587,0.256,0.826,0.435
			c0.239,0.179,0.445,0.388,0.624,0.625c0.179,0.237,0.342,0.483,0.491,0.737h0.09c0-0.297,0.012-0.596,0.034-0.893
			c0.021-0.297,0.041-0.595,0.055-0.894h2.501c-0.03,0.298-0.053,0.6-0.069,0.904c-0.014,0.305-0.021,0.608-0.021,0.904v8.483
			c0,0.893-0.078,1.719-0.234,2.478c-0.158,0.758-0.436,1.409-0.838,1.953c-0.402,0.543-0.945,0.967-1.629,1.272
			c-0.686,0.304-1.556,0.458-2.614,0.458c-0.923,0-1.726-0.09-2.409-0.269c-0.686-0.179-1.198-0.327-1.54-0.446L243.291,198.656z
			 M245.478,191c0,0.67,0.048,1.246,0.145,1.73c0.096,0.483,0.232,0.881,0.402,1.193c0.172,0.312,0.365,0.544,0.581,0.693
			c0.216,0.149,0.443,0.223,0.682,0.223c0.879,0,1.503-0.317,1.875-0.949s0.558-1.603,0.558-2.913c0-1.205-0.204-2.124-0.613-2.756
			c-0.411-0.633-0.95-0.942-1.618-0.927c-0.73,0.015-1.248,0.342-1.553,0.982C245.629,188.916,245.478,189.824,245.478,191z"/>
		<path class="st1" d="M258.692,194.057h0.044l2.21-8.684h2.68l-3.55,11.609l-0.647,2.075c-0.119,0.403-0.273,0.77-0.459,1.105
			c-0.186,0.335-0.409,0.625-0.668,0.871c-0.262,0.246-0.571,0.44-0.927,0.581c-0.358,0.141-0.766,0.212-1.228,0.212
			c-0.372,0-0.707-0.03-1.005-0.09c-0.298-0.06-0.551-0.126-0.76-0.201l0.156-2.121c0.165,0.06,0.328,0.112,0.491,0.156
			c0.165,0.046,0.351,0.068,0.56,0.068c0.415,0.015,0.732-0.111,0.948-0.38c0.216-0.267,0.413-0.7,0.592-1.294l0.2-0.982
			l-3.816-11.609h2.857L258.692,194.057z"/>
		<path class="st1" d="M76.645,210.128c0.387-0.179,0.871-0.365,1.451-0.558c0.579-0.193,1.309-0.29,2.187-0.29
			c0.894,0,1.626,0.104,2.199,0.313c0.573,0.208,1.019,0.513,1.339,0.914c0.32,0.403,0.543,0.889,0.67,1.463
			c0.126,0.573,0.189,1.216,0.189,1.93v5.023c0,0.418,0.018,0.803,0.056,1.161c0.037,0.357,0.07,0.647,0.1,0.87h-2.5
			c-0.074-0.223-0.119-0.468-0.134-0.737c-0.015-0.267-0.022-0.543-0.022-0.826h-0.045c-0.342,0.477-0.758,0.886-1.249,1.228
			c-0.491,0.343-1.146,0.514-1.965,0.514c-0.446,0-0.878-0.074-1.294-0.223c-0.416-0.149-0.781-0.369-1.093-0.659
			c-0.313-0.291-0.566-0.644-0.76-1.06c-0.194-0.418-0.29-0.894-0.29-1.43c0-0.773,0.153-1.413,0.458-1.919
			c0.305-0.506,0.725-0.907,1.261-1.206c0.536-0.297,1.173-0.502,1.909-0.613c0.737-0.112,1.543-0.168,2.422-0.168h0.558v-0.424
			c0-0.282-0.037-0.558-0.111-0.826c-0.074-0.268-0.197-0.502-0.368-0.703c-0.171-0.201-0.391-0.36-0.659-0.48
			c-0.268-0.119-0.602-0.179-1.005-0.179c-0.342,0-0.673,0.038-0.992,0.111c-0.32,0.076-0.618,0.168-0.894,0.28
			c-0.275,0.111-0.521,0.234-0.737,0.367c-0.216,0.135-0.39,0.255-0.524,0.358L76.645,210.128z M82.092,215.33h-0.246
			c-1.191,0-2.117,0.151-2.779,0.457c-0.662,0.305-0.994,0.874-0.994,1.708c0,0.521,0.16,0.944,0.48,1.272
			c0.32,0.328,0.748,0.491,1.284,0.491c0.833,0,1.418-0.29,1.752-0.871c0.335-0.58,0.503-1.384,0.503-2.41V215.33z"/>
		<path class="st1" d="M86.982,211.356c0-0.357-0.008-0.699-0.023-1.026c-0.015-0.328-0.037-0.617-0.066-0.872h2.589
			c0.014,0.298,0.033,0.592,0.055,0.882c0.023,0.29,0.033,0.584,0.033,0.882h0.045c0.104-0.179,0.235-0.38,0.391-0.604
			c0.156-0.223,0.353-0.435,0.591-0.636c0.239-0.201,0.526-0.368,0.859-0.502c0.335-0.133,0.741-0.201,1.217-0.201
			c0.654,0,1.198,0.111,1.629,0.335c0.431,0.224,0.778,0.532,1.038,0.926c0.26,0.395,0.446,0.849,0.558,1.362
			c0.111,0.513,0.168,1.061,0.168,1.641v7.41h-2.767v-6.898c0-0.893-0.123-1.532-0.368-1.918c-0.245-0.388-0.652-0.581-1.217-0.581
			c-0.357,0-0.662,0.07-0.914,0.211c-0.254,0.142-0.458,0.335-0.615,0.581c-0.156,0.246-0.267,0.532-0.334,0.86
			c-0.068,0.326-0.101,0.677-0.101,1.049v6.696h-2.767V211.356z"/>
		<path class="st1" d="M107.74,204.212v14.777c0,0.418,0.008,0.796,0.023,1.138c0.015,0.343,0.037,0.618,0.067,0.826h-2.589
			c-0.03-0.163-0.052-0.404-0.067-0.725c-0.015-0.319-0.022-0.672-0.022-1.06h-0.068c-0.119,0.252-0.26,0.496-0.425,0.725
			c-0.163,0.232-0.364,0.439-0.602,0.625c-0.238,0.187-0.524,0.335-0.859,0.446c-0.335,0.112-0.725,0.167-1.171,0.167
			c-0.715,0-1.329-0.161-1.841-0.48c-0.514-0.32-0.93-0.748-1.251-1.284c-0.32-0.536-0.558-1.16-0.715-1.875
			c-0.156-0.715-0.234-1.474-0.234-2.277c0-1.89,0.35-3.351,1.05-4.386c0.699-1.034,1.674-1.551,2.923-1.551
			c0.416,0,0.785,0.052,1.105,0.156c0.32,0.104,0.604,0.246,0.849,0.424c0.246,0.178,0.45,0.375,0.614,0.591
			c0.163,0.216,0.297,0.436,0.402,0.659h0.045v-6.898H107.74z M100.754,215.106c0,1.339,0.137,2.341,0.413,3.002
			c0.274,0.662,0.815,0.994,1.618,0.994c0.402,0,0.745-0.104,1.027-0.312c0.282-0.209,0.509-0.492,0.681-0.849
			c0.171-0.358,0.294-0.773,0.368-1.251c0.073-0.475,0.111-0.982,0.111-1.517c0-0.551-0.041-1.065-0.123-1.541
			c-0.083-0.476-0.209-0.885-0.38-1.228c-0.171-0.343-0.395-0.61-0.67-0.804c-0.275-0.193-0.599-0.289-0.971-0.289
			c-0.773,0-1.314,0.345-1.618,1.037C100.907,213.042,100.754,213.96,100.754,215.106z"/>
		<path class="st1" d="M115.33,213.164c0-1.397,0.171-2.604,0.513-3.616c0.343-1.012,0.801-1.84,1.373-2.488
			c0.573-0.647,1.235-1.128,1.987-1.44c0.75-0.312,1.528-0.468,2.332-0.468c0.803,0,1.581,0.156,2.333,0.468
			c0.751,0.312,1.413,0.793,1.986,1.44c0.574,0.648,1.03,1.477,1.373,2.488c0.342,1.012,0.514,2.219,0.514,3.616
			c0,1.4-0.172,2.604-0.514,3.616c-0.343,1.012-0.8,1.843-1.373,2.49c-0.573,0.647-1.235,1.127-1.986,1.439
			c-0.752,0.313-1.529,0.469-2.333,0.469c-0.804,0-1.582-0.156-2.332-0.469c-0.753-0.312-1.415-0.792-1.987-1.439
			c-0.573-0.647-1.03-1.478-1.373-2.49C115.5,215.768,115.33,214.563,115.33,213.164z M118.276,213.164
			c0,1.072,0.086,1.98,0.257,2.724c0.171,0.743,0.402,1.342,0.692,1.797s0.637,0.785,1.038,0.994s0.826,0.312,1.272,0.312
			s0.871-0.103,1.272-0.312c0.402-0.209,0.748-0.539,1.037-0.994c0.29-0.454,0.521-1.053,0.693-1.797
			c0.171-0.743,0.256-1.652,0.256-2.724c0-1.072-0.085-1.978-0.256-2.724c-0.172-0.743-0.403-1.342-0.693-1.797
			c-0.289-0.453-0.636-0.785-1.037-0.994c-0.402-0.208-0.826-0.312-1.272-0.312s-0.871,0.104-1.272,0.312
			c-0.402,0.209-0.748,0.54-1.038,0.994c-0.29,0.454-0.521,1.053-0.692,1.797C118.362,211.186,118.276,212.092,118.276,213.164z"/>
		<path class="st1" d="M132.562,204.212v6.898h0.045c0.103-0.223,0.238-0.443,0.402-0.659c0.164-0.216,0.368-0.413,0.614-0.591
			c0.246-0.179,0.528-0.32,0.848-0.424c0.32-0.104,0.688-0.156,1.106-0.156c1.249,0,2.224,0.517,2.923,1.551
			c0.7,1.035,1.05,2.497,1.05,4.386c0,0.803-0.078,1.563-0.235,2.277c-0.156,0.715-0.393,1.339-0.714,1.875
			c-0.32,0.536-0.737,0.964-1.251,1.284c-0.513,0.319-1.127,0.48-1.841,0.48c-0.446,0-0.837-0.055-1.171-0.167
			c-0.335-0.111-0.622-0.259-0.859-0.446c-0.239-0.186-0.443-0.394-0.614-0.625c-0.172-0.23-0.31-0.473-0.413-0.725h-0.068
			c0,0.388-0.007,0.741-0.022,1.06c-0.015,0.321-0.038,0.562-0.066,0.725h-2.589c0.029-0.208,0.052-0.483,0.066-0.826
			c0.015-0.342,0.022-0.721,0.022-1.138v-14.777H132.562z M132.562,215.174c0,0.535,0.037,1.042,0.111,1.517
			c0.074,0.477,0.197,0.893,0.368,1.251c0.171,0.357,0.398,0.64,0.682,0.849c0.282,0.208,0.624,0.312,1.027,0.312
			c0.803,0,1.342-0.332,1.618-0.994c0.275-0.662,0.413-1.664,0.413-3.002c0-1.146-0.153-2.064-0.458-2.757
			c-0.305-0.692-0.844-1.037-1.618-1.037c-0.388,0-0.715,0.096-0.982,0.289c-0.268,0.194-0.488,0.461-0.659,0.804
			c-0.172,0.343-0.298,0.752-0.38,1.228C132.604,214.109,132.562,214.623,132.562,215.174z"/>
		<path class="st1" d="M141.156,218.276c0.104,0.044,0.253,0.108,0.446,0.189c0.195,0.082,0.418,0.168,0.67,0.257
			c0.252,0.088,0.528,0.164,0.826,0.224c0.298,0.06,0.61,0.09,0.938,0.09c0.505,0,0.929-0.079,1.271-0.235
			c0.342-0.156,0.514-0.458,0.514-0.904c0-0.224-0.078-0.446-0.234-0.669c-0.156-0.224-0.489-0.484-0.994-0.782l-1.138-0.67
			c-0.298-0.178-0.587-0.36-0.872-0.546c-0.282-0.186-0.541-0.402-0.78-0.647c-0.239-0.246-0.429-0.536-0.569-0.871
			c-0.143-0.335-0.214-0.726-0.214-1.171c0-0.402,0.094-0.796,0.28-1.184c0.186-0.385,0.45-0.732,0.792-1.037
			c0.344-0.305,0.759-0.555,1.251-0.748c0.491-0.193,1.042-0.29,1.652-0.29c0.743,0,1.377,0.068,1.898,0.201
			c0.521,0.134,0.849,0.223,0.982,0.268l-0.156,2.143c-0.342-0.135-0.707-0.254-1.094-0.358c-0.388-0.103-0.833-0.156-1.338-0.156
			c-0.567,0-0.973,0.101-1.218,0.301c-0.246,0.202-0.367,0.473-0.367,0.815c0,0.313,0.115,0.574,0.346,0.782
			c0.229,0.209,0.546,0.438,0.948,0.692l1.361,0.871c0.358,0.223,0.67,0.438,0.938,0.647c0.268,0.209,0.491,0.424,0.67,0.647
			c0.179,0.223,0.312,0.466,0.402,0.725c0.09,0.262,0.133,0.555,0.133,0.882c0,0.536-0.108,1.012-0.324,1.428
			c-0.216,0.418-0.512,0.771-0.893,1.06c-0.379,0.29-0.828,0.514-1.349,0.67c-0.521,0.156-1.095,0.234-1.719,0.234
			c-0.716,0-1.352-0.063-1.909-0.189c-0.558-0.127-0.987-0.249-1.286-0.368L141.156,218.276z"/>
		<path class="st1" d="M151.313,207.092l2.767-0.848v3.214h2.299v2.032h-2.299v5.96c0,0.624,0.108,1.046,0.324,1.261
			c0.216,0.217,0.525,0.325,0.927,0.325c0.252,0,0.466-0.026,0.636-0.079c0.172-0.052,0.31-0.107,0.413-0.166v1.964
			c-0.209,0.103-0.466,0.193-0.769,0.267c-0.305,0.075-0.668,0.111-1.083,0.111c-1.028,0-1.82-0.257-2.377-0.77
			c-0.558-0.513-0.838-1.373-0.838-2.578v-6.295h-1.831v-2.032h1.831V207.092z"/>
		<path class="st1" d="M166.313,220.396c-0.298,0.119-0.737,0.272-1.317,0.458c-0.581,0.186-1.287,0.279-2.12,0.279
			c-0.922,0-1.719-0.156-2.389-0.468c-0.67-0.313-1.221-0.73-1.652-1.251c-0.431-0.521-0.75-1.131-0.959-1.831
			c-0.209-0.699-0.312-1.435-0.312-2.21c0-0.863,0.108-1.662,0.324-2.399c0.216-0.737,0.528-1.38,0.936-1.931
			c0.411-0.551,0.909-0.982,1.496-1.294c0.587-0.313,1.246-0.469,1.976-0.469c0.626,0,1.214,0.1,1.765,0.302
			c0.551,0.201,1.037,0.539,1.462,1.015c0.424,0.476,0.759,1.105,1.005,1.886c0.246,0.781,0.367,1.76,0.367,2.936v0.535h-6.652
			c0,0.982,0.22,1.753,0.659,2.311c0.438,0.558,1.195,0.838,2.267,0.838c0.847,0,1.498-0.101,1.953-0.302
			c0.454-0.201,0.805-0.398,1.06-0.591L166.313,220.396z M164.216,214.214c0-2.039-0.64-3.058-1.921-3.058
			c-0.356,0-0.665,0.088-0.927,0.267c-0.259,0.178-0.475,0.41-0.647,0.692c-0.17,0.282-0.294,0.61-0.367,0.982
			c-0.076,0.372-0.112,0.743-0.112,1.116H164.216z"/>
		<path class="st1" d="M169.796,207.092l2.767-0.848v3.214h2.299v2.032h-2.299v5.96c0,0.624,0.108,1.046,0.324,1.261
			c0.216,0.217,0.523,0.325,0.927,0.325c0.252,0,0.463-0.026,0.636-0.079c0.17-0.052,0.307-0.107,0.413-0.166v1.964
			c-0.209,0.103-0.466,0.193-0.771,0.267c-0.305,0.075-0.665,0.111-1.083,0.111c-1.026,0-1.817-0.257-2.377-0.77
			c-0.558-0.513-0.835-1.373-0.835-2.578v-6.295h-1.831v-2.032h1.831V207.092z"/>
		<path class="st1" d="M176.446,211.356c0-0.357-0.007-0.699-0.021-1.026c-0.016-0.328-0.039-0.617-0.066-0.872h2.499
			c0.014,0.343,0.034,0.693,0.055,1.05c0.023,0.357,0.034,0.708,0.034,1.05h0.044c0.09-0.224,0.209-0.469,0.358-0.737
			c0.149-0.268,0.342-0.514,0.58-0.737c0.239-0.224,0.521-0.413,0.849-0.569c0.326-0.157,0.707-0.235,1.138-0.235
			c0.09,0,0.17,0.008,0.246,0.022c0.073,0.016,0.149,0.03,0.223,0.046v2.588c-0.268-0.073-0.528-0.111-0.78-0.111
			c-0.285,0-0.567,0.049-0.849,0.146c-0.282,0.096-0.539,0.252-0.771,0.468c-0.229,0.216-0.415,0.506-0.558,0.871
			c-0.142,0.365-0.211,0.815-0.211,1.35v6.294h-2.77V211.356z"/>
		<path class="st1" d="M184.17,204.57h2.857v2.724h-2.857V204.57z M184.216,209.458h2.767v11.496h-2.767V209.458z"/>
		<path class="st1" d="M197.295,220.665c-0.326,0.119-0.721,0.227-1.182,0.324c-0.461,0.096-0.975,0.145-1.54,0.145
			c-0.955,0-1.769-0.156-2.446-0.468c-0.677-0.313-1.234-0.737-1.673-1.274c-0.441-0.535-0.764-1.16-0.971-1.875
			c-0.209-0.714-0.314-1.48-0.314-2.299c0-0.818,0.108-1.588,0.324-2.311c0.216-0.721,0.551-1.349,1.005-1.886
			c0.454-0.535,1.03-0.959,1.73-1.271c0.7-0.313,1.533-0.469,2.501-0.469c0.431,0,0.877,0.052,1.338,0.156
			c0.461,0.104,0.819,0.209,1.072,0.313l-0.156,2.187c-0.252-0.119-0.544-0.241-0.87-0.367c-0.328-0.127-0.686-0.19-1.072-0.19
			c-1.058,0-1.824,0.335-2.299,1.005c-0.477,0.669-0.714,1.622-0.714,2.857c0,0.535,0.062,1.035,0.188,1.496
			c0.126,0.461,0.321,0.863,0.581,1.205c0.262,0.342,0.587,0.61,0.982,0.803c0.395,0.194,0.86,0.291,1.395,0.291
			c0.342,0,0.707-0.064,1.094-0.19c0.386-0.126,0.677-0.249,0.87-0.368L197.295,220.665z"/>
		<path class="st1" d="M198.413,218.276c0.103,0.044,0.252,0.108,0.445,0.189c0.195,0.082,0.418,0.168,0.67,0.257
			c0.252,0.088,0.528,0.164,0.826,0.224c0.298,0.06,0.61,0.09,0.938,0.09c0.505,0,0.929-0.079,1.271-0.235
			c0.342-0.156,0.514-0.458,0.514-0.904c0-0.224-0.078-0.446-0.234-0.669c-0.156-0.224-0.489-0.484-0.994-0.782l-1.138-0.67
			c-0.298-0.178-0.587-0.36-0.872-0.546c-0.282-0.186-0.541-0.402-0.78-0.647c-0.239-0.246-0.429-0.536-0.569-0.871
			c-0.142-0.335-0.213-0.726-0.213-1.171c0-0.402,0.094-0.796,0.28-1.184c0.186-0.385,0.45-0.732,0.792-1.037
			c0.344-0.305,0.76-0.555,1.251-0.748c0.491-0.193,1.042-0.29,1.652-0.29c0.743,0,1.377,0.068,1.898,0.201
			c0.521,0.134,0.849,0.223,0.982,0.268l-0.156,2.143c-0.342-0.135-0.707-0.254-1.095-0.358c-0.388-0.103-0.833-0.156-1.338-0.156
			c-0.567,0-0.973,0.101-1.218,0.301c-0.246,0.202-0.367,0.473-0.367,0.815c0,0.313,0.115,0.574,0.346,0.782
			c0.229,0.209,0.546,0.438,0.948,0.692l1.361,0.871c0.358,0.223,0.67,0.438,0.939,0.647c0.268,0.209,0.491,0.424,0.67,0.647
			c0.179,0.223,0.312,0.466,0.402,0.725c0.089,0.262,0.133,0.555,0.133,0.882c0,0.536-0.108,1.012-0.324,1.428
			c-0.216,0.418-0.512,0.771-0.893,1.06c-0.379,0.29-0.828,0.514-1.349,0.67c-0.521,0.156-1.095,0.234-1.719,0.234
			c-0.716,0-1.352-0.063-1.909-0.189c-0.558-0.127-0.987-0.249-1.285-0.368L198.413,218.276z"/>
	</g>
	<polygon class="st1" points="3.139,163.992 276.861,163.992 276.861,165.327 3.139,165.327 3.139,163.992 	"/>
	<g>
		<path class="st1" d="M109.795,87.825c0.566,0.202,0.993,0.367,1.248,0.367c0.651,0,0.426-0.394,0.678-0.394
			c0.111,0,0.173,0.11,0.173,0.309c0,0.402-0.062,1.107-0.062,1.696c0,0.488,0.062,1.51,0.062,1.931
			c0,0.255-0.173,0.306-0.287,0.306c-0.165,0-0.281-0.334-0.394-0.675c-0.338-0.987-1.075-3.114-3.536-3.114
			c-1.477,0-2.553,0.762-2.553,2.011c0,2.943,6.964,2.065,6.964,6.312c0,2.183-1.784,3.971-4.698,3.971
			c-1.389,0-2.322-0.203-3.37-0.738c-0.399-0.2-0.429-0.316-0.482-0.827c-0.088-0.871-0.539-2.318-0.539-2.882
			c0-0.227,0.141-0.402,0.343-0.402c0.249,0,0.363,0.174,0.536,0.762c0.337,1.161,1.727,3.291,3.877,3.291
			c1.534,0,2.75-0.792,2.75-2.329c0-3.169-6.967-2.23-6.967-6.312c0-1.809,1.47-3.646,4.138-3.646
			C108.497,87.463,109.205,87.63,109.795,87.825L109.795,87.825z"/>
		<path class="st1" d="M128.226,99.582c2.155,0,3.713-1.187,4.273-1.845c0.146-0.164,0.26-0.341,0.483-0.341
			c0.118,0,0.259,0.086,0.259,0.287c0,0.399-2.066,2.864-5.833,2.864c-3.854,0-6.26-2.531-6.26-6.204c0-4.026,3.284-6.88,7.108-6.88
			c0.821,0,1.642,0.255,2.35,0.474c0.709,0.256,1.274,0.506,1.526,0.506c0.455,0,0.794-0.335,0.882-0.335
			c0.141,0,0.199,0.085,0.199,0.512c0,1.303,0.228,3.115,0.228,3.51c0,0.227-0.118,0.343-0.317,0.343
			c-0.226,0-0.307-0.17-0.537-0.819c-0.622-1.763-2.095-3.57-4.53-3.57c-3.144,0-4.842,2.481-4.842,5.465
			C123.216,98.156,126.014,99.582,128.226,99.582L128.226,99.582z"/>
		<path class="st1" d="M156.71,98.594c0,1.493,2.205,1.068,2.205,1.586c0,0.138-0.08,0.25-0.397,0.25
			c-0.76,0-1.641-0.112-2.519-0.112c-0.904,0-1.895,0.112-2.747,0.112c-0.17,0-0.278-0.086-0.278-0.226
			c0-0.734,1.666-0.084,1.666-1.444v-4.016c0-0.376-0.145-0.576-0.397-0.576h-6.312c-0.259,0-0.399,0.2-0.399,0.576v3.85
			c0,1.493,2.214,1.068,2.214,1.586c0,0.138-0.087,0.25-0.399,0.25c-0.771,0-1.645-0.112-2.524-0.112
			c-0.902,0-1.893,0.112-2.744,0.112c-0.168,0-0.282-0.086-0.282-0.226c0-0.734,1.666-0.084,1.666-1.444v-9.344
			c0-1.506-2.178-1.08-2.178-1.59c0-0.14,0.085-0.257,0.395-0.257c0.766,0,1.643,0.117,2.522,0.117c0.904,0,1.898-0.117,2.749-0.117
			c0.17,0,0.275,0.087,0.275,0.231c0,0.734-1.693,0.086-1.693,1.44v3.37c0,0.375,0.14,0.578,0.399,0.578h6.312
			c0.252,0,0.397-0.203,0.397-0.578v-3.193c0-1.506-2.182-1.08-2.182-1.59c0-0.14,0.087-0.257,0.402-0.257
			c0.762,0,1.636,0.117,2.517,0.117c0.906,0,1.898-0.117,2.749-0.117c0.168,0,0.282,0.087,0.282,0.231
			c0,0.734-1.698,0.086-1.698,1.44V98.594L156.71,98.594z"/>
		<path class="st1" d="M180.966,93.719c0-3.483-2.46-6.256-7.054-6.256c-4.273,0-7.077,2.717-7.077,6.79
			c0,3.94,2.974,6.294,7.162,6.294C177.593,100.547,180.966,97.932,180.966,93.719L180.966,93.719z M178.724,94.115
			c0,3.817-2.033,5.636-4.555,5.636c-2.916,0-5.099-2.178-5.099-5.866c0-3.593,1.868-5.802,4.732-5.802
			C176.519,88.082,178.724,90.202,178.724,94.115L178.724,94.115z"/>
		<path class="st1" d="M203.13,93.719c0-3.483-2.464-6.256-7.054-6.256c-4.275,0-7.079,2.717-7.079,6.79
			c0,3.94,2.976,6.294,7.164,6.294C199.762,100.547,203.13,97.932,203.13,93.719L203.13,93.719z M200.891,94.115
			c0,3.817-2.038,5.636-4.559,5.636c-2.91,0-5.096-2.178-5.096-5.866c0-3.593,1.872-5.802,4.727-5.802
			C198.686,88.082,200.891,90.202,200.891,94.115L200.891,94.115z"/>
		<path class="st1" d="M213.234,89.521c0-1.494-2.042-0.988-2.042-1.612c0-0.224,0.142-0.341,0.34-0.341
			c0.707,0,1.498,0.117,2.662,0.117c1.218,0,1.98-0.117,2.497-0.117c0.135,0,0.307,0.117,0.307,0.287
			c0,0.509-1.696,0.311-1.696,1.839v9.065c0,0.683,0.34,0.823,1.948,0.823c4.052,0,4.509-2.16,4.906-2.16
			c0.14,0,0.278,0.151,0.278,0.438c0,2.687-2.318,2.65-3.483,2.65c-0.539,0-1.248-0.027-1.923-0.08
			c-0.702-0.059-1.418-0.112-1.953-0.112c-0.679,0-1.276,0.026-1.726,0.054c-0.482,0.023-0.824,0.059-1.111,0.059
			c-0.397,0-0.558-0.036-0.558-0.226c0-0.541,1.554-0.255,1.554-1.671V89.521L213.234,89.521z"/>
		<path class="st1" d="M252.738,93.719c0-3.483-2.467-6.256-7.051-6.256c-4.277,0-7.084,2.717-7.084,6.79
			c0,3.94,2.978,6.294,7.168,6.294C249.362,100.547,252.738,97.932,252.738,93.719L252.738,93.719z M250.503,94.115
			c0,3.817-2.044,5.636-4.571,5.636c-2.914,0-5.094-2.178-5.094-5.866c0-3.593,1.872-5.802,4.734-5.802
			C248.291,88.082,250.503,90.202,250.503,94.115L250.503,94.115z"/>
		<path class="st1" d="M264.665,93.074h2.595c2.047,0,1.537-1.62,2.159-1.62c0.193,0,0.31,0.14,0.31,0.306
			c0,0.341-0.083,0.874-0.083,1.478c0,0.877,0.053,1.666,0.053,2.371c0,0.316-0.112,0.429-0.369,0.429
			c-0.532,0-0.053-1.924-2.01-1.924h-2.655v4.445c0,1.389,2.233,1.05,2.233,1.583c0,0.149-0.05,0.287-0.227,0.287
			c-0.741,0-1.45-0.112-2.774-0.112c-1.363,0-2.347,0.112-2.664,0.112c-0.232,0-0.369-0.036-0.369-0.287
			c0-0.481,1.732-0.023,1.732-2.721v-7.814c0-1.615-1.902-1.165-1.902-1.752c0-0.2,0.17-0.287,0.459-0.287
			c1.161,0,2.965,0.117,4.725,0.117c1.985,0,4.479-0.117,4.816-0.117c0.168,0,0.282,0.176,0.282,0.287
			c0,0.337-0.025,0.794-0.025,2.436c0,0.342-0.115,0.458-0.314,0.458c-0.227,0-0.314-0.485-0.369-0.826
			c-0.165-0.995-1.223-1.389-3.369-1.389c-1.48,0-2.233,0-2.233,0.804V93.074L264.665,93.074z"/>
		<path class="st1" d="M114.55,130.846c-0.168,0.294-0.377,0.379-0.545,0.379c-0.211,0-0.38-0.124-0.546-0.505l-6.004-12.717h-0.252
			c-0.04,1.384-0.251,3.522-0.251,8.896c0,2.519,0.294,3.109,1.72,3.694c0.505,0.211,1.051,0.172,1.051,0.675
			c0,0.207-0.211,0.294-0.504,0.294c-1.008,0-2.016-0.17-3.024-0.17c-1.259,0-2.517,0.17-3.232,0.17
			c-0.169,0-0.335-0.087-0.335-0.294c0-0.675,2.141-0.381,2.476-2.226c0.38-2.269,0.671-9.112,0.671-12.385
			c0-3.694-3.357-2.688-3.357-3.694c0-0.211,0.126-0.464,0.461-0.464c0.756,0,1.303,0.169,2.057,0.169
			c1.007,0,1.806-0.169,2.436-0.169c0.336,0,0.545,0.252,0.714,0.587l6.716,13.771h0.336l6.843-13.224
			c0.252-0.463,0.462-0.966,0.757-0.966h1.762c0.673,0,1.176-0.041,1.597-0.084c0.419-0.041,0.67-0.085,0.797-0.085
			c0.21,0,0.42,0.211,0.42,0.464c0,0.922-2.856,0-2.856,3.147c0,3.149,0.335,8.44,0.335,12.051c0,3.02,2.982,2.18,2.982,3.107
			c0,0.168-0.086,0.294-0.419,0.294c-0.968,0-2.436-0.17-3.864-0.17c-1.26,0-2.267,0.17-3.066,0.17c-0.46,0-0.755-0.044-0.755-0.337
			c0-0.84,2.057-0.459,2.057-2.731v-11.04l-0.251,0.081L114.55,130.846L114.55,130.846z"/>
		<path class="st1" d="M138.388,128.455c0,1.26,0.966,1.677,3.274,1.677c5.711,0,6.636-3.107,7.18-3.107
			c0.211,0,0.296,0.209,0.296,0.461c0,0.505-0.502,2.269-1.723,3.279c-0.755,0.626-1.386,0.796-3.231,0.796
			c-1.556,0-3.149-0.17-5.163-0.17c-1.976,0-4.158,0.17-5.587,0.17c-0.419,0-0.795-0.126-0.795-0.381c0-0.922,2.685,0,2.685-2.643
			v-12.973c0-2.437-2.81-1.766-2.81-2.643c0-0.295,0.249-0.422,0.671-0.422c1.719,0,4.408,0.169,7.01,0.169
			c2.939,0,6.633-0.169,7.14-0.169c0.248,0,0.415,0.252,0.415,0.422c0,0.501-0.041,1.175-0.041,3.653
			c0,0.501-0.167,0.671-0.461,0.671c-0.335,0-0.464-0.716-0.546-1.218c-0.252-1.511-1.806-2.1-4.995-2.1
			c-2.183,0-3.318,0-3.318,1.216v5.668h3.864c3.022,0,2.267-2.435,3.19-2.435c0.296,0,0.461,0.211,0.461,0.463
			c0,0.505-0.124,1.342-0.124,2.228c0,1.296,0.083,2.474,0.083,3.566c0,0.461-0.168,0.629-0.546,0.629
			c-0.796,0-0.085-2.898-2.978-2.898h-3.949V128.455L138.388,128.455z"/>
		<path class="st1" d="M159.704,129.504c0,0.966,1.218,1.131,3.529,1.131c5.92,0,8.187-3.02,8.187-7.806
			c0-4.199-2.097-9.572-8.564-9.572c-2.058,0-3.153,0.208-3.153,1.3V129.504L159.704,129.504z M156.643,115.859
			c0-2.81-2.813-2.059-2.813-2.98c0-0.295,0.25-0.38,0.67-0.38c0.296,0,0.672,0.044,1.177,0.085
			c0.461,0.042,1.049,0.084,1.638,0.084c1.046,0,2.182-0.084,3.355-0.169c1.221-0.084,2.48-0.166,3.697-0.166
			c7.976,0,10.117,6.172,10.117,9.321c0,6.549-5.161,9.908-10.411,9.908c-1.636,0-3.316-0.17-4.954-0.17
			c-1.888,0-3.653,0.17-4.323,0.17c-0.211,0-0.335-0.087-0.335-0.211c0-0.757,2.182-0.381,2.182-3.024V115.859L156.643,115.859z"/>
		<path class="st1" d="M181.04,115.229c0-2.225-3.233-1.595-3.233-2.35c0-0.211,0.126-0.38,0.585-0.38
			c1.136,0,2.437,0.169,3.738,0.169c1.342,0,2.813-0.169,4.073-0.169c0.252,0,0.42,0.127,0.42,0.336
			c0,1.092-2.517,0.127-2.517,2.141v13.855c0,2.226,3.272,1.595,3.272,2.35c0,0.211-0.126,0.381-0.587,0.381
			c-1.134,0-2.435-0.17-3.736-0.17c-1.345,0-2.813,0.17-4.073,0.17c-0.252,0-0.42-0.126-0.42-0.337c0-1.092,2.478-0.124,2.478-2.141
			V115.229L181.04,115.229z"/>
		<path class="st1" d="M202.357,130.3c3.192,0,5.503-1.762,6.34-2.731c0.209-0.25,0.379-0.503,0.714-0.503
			c0.168,0,0.381,0.129,0.381,0.42c0,0.587-3.068,4.24-8.651,4.24c-5.707,0-9.277-3.736-9.277-9.192
			c0-5.96,4.867-10.202,10.537-10.202c1.218,0,2.435,0.377,3.483,0.716c1.051,0.374,1.888,0.75,2.267,0.75
			c0.672,0,1.175-0.501,1.303-0.501c0.209,0,0.296,0.125,0.296,0.755c0,1.933,0.335,4.621,0.335,5.206
			c0,0.336-0.168,0.503-0.463,0.503c-0.335,0-0.464-0.25-0.799-1.217c-0.925-2.6-3.105-5.288-6.719-5.288
			c-4.658,0-7.178,3.694-7.178,8.101C194.927,128.203,199.085,130.3,202.357,130.3L202.357,130.3z"/>
		<path class="st1" d="M217.596,115.229c0-2.225-3.231-1.595-3.231-2.35c0-0.211,0.124-0.38,0.59-0.38
			c1.131,0,2.432,0.169,3.733,0.169c1.345,0,2.813-0.169,4.073-0.169c0.252,0,0.42,0.127,0.42,0.336
			c0,1.092-2.517,0.127-2.517,2.141v13.855c0,2.226,3.272,1.595,3.272,2.35c0,0.211-0.126,0.381-0.587,0.381
			c-1.134,0-2.432-0.17-3.736-0.17c-1.345,0-2.816,0.17-4.073,0.17c-0.252,0-0.42-0.126-0.42-0.337c0-1.092,2.476-0.124,2.476-2.141
			V115.229L217.596,115.229z"/>
		<path class="st1" d="M247.325,116.53c0-3.651-3.782-2.602-3.782-3.651c0-0.252,0.335-0.38,0.629-0.38
			c0.966,0,2.35,0.169,3.527,0.169c1.553,0,2.643-0.169,3.483-0.169c0.34,0,0.463,0.211,0.463,0.422c0,0.838-2.77,0-2.77,3.272
			v14.822c0,0.502-0.168,0.711-0.716,0.711c-0.335,0-0.631-0.165-1.34-0.922l-12.933-13.981l-0.255,0.041v11.377
			c0,3.027,3.57,1.767,3.57,3.027c0,0.25-0.294,0.294-0.753,0.294c-1.177,0-2.478-0.17-3.57-0.17c-1.136,0-2.269,0.17-3.277,0.17
			c-0.335,0-0.585-0.126-0.585-0.381c0-1.173,2.896,0,2.896-4.408v-10.579c0-3.358-3.653-2.394-3.653-3.401
			c0-0.166,0.207-0.294,0.672-0.294c0.502,0,1.092,0.169,2.141,0.169c0.881,0,1.466-0.169,2.226-0.169
			c0.587,0,1.005,0.211,1.384,0.629l12.343,13.48l0.298-0.17V116.53L247.325,116.53z"/>
		<path class="st1" d="M261.51,128.455c0,1.26,0.966,1.677,3.277,1.677c5.709,0,6.632-3.107,7.178-3.107
			c0.211,0,0.294,0.209,0.294,0.461c0,0.505-0.505,2.269-1.721,3.279c-0.757,0.626-1.384,0.796-3.233,0.796
			c-1.553,0-3.15-0.17-5.165-0.17c-1.971,0-4.156,0.17-5.583,0.17c-0.418,0-0.796-0.126-0.796-0.381c0-0.922,2.685,0,2.685-2.643
			v-12.973c0-2.437-2.813-1.766-2.813-2.643c0-0.295,0.252-0.422,0.672-0.422c1.721,0,4.41,0.169,7.012,0.169
			c2.937,0,6.634-0.169,7.136-0.169c0.252,0,0.42,0.252,0.42,0.422c0,0.501-0.041,1.175-0.041,3.653
			c0,0.501-0.168,0.671-0.464,0.671c-0.335,0-0.461-0.716-0.544-1.218c-0.252-1.511-1.806-2.1-4.998-2.1
			c-2.18,0-3.316,0-3.316,1.216v5.668h3.864c3.022,0,2.265-2.435,3.187-2.435c0.296,0,0.464,0.211,0.464,0.463
			c0,0.505-0.126,1.342-0.126,2.228c0,1.296,0.087,2.474,0.087,3.566c0,0.461-0.17,0.629-0.548,0.629
			c-0.799,0-0.085-2.898-2.981-2.898h-3.947V128.455L261.51,128.455z"/>
		<path class="st1" d="M193.729,49.92c11.535,0,19.541-7.514,19.541-19.149c0-10.707-8.112-18.318-18.665-18.318
			c-10.61,0-18.977,7.818-18.977,18.581C175.629,41.943,182.49,49.92,193.729,49.92L193.729,49.92z M193.052,14.166
			c10.094,0,16.459,9.157,16.459,18.57c0,9.568-6.056,15.617-13.616,15.617c-10.246,0-16.508-9.257-16.508-18.825
			C179.388,21.357,184.36,14.166,193.052,14.166L193.052,14.166z"/>
		<path class="st1" d="M233.617,30.345c3.531-1.396,6.349-4.766,6.349-8.682c0-9.699-11.122-8.698-11.928-8.698
			c-2.625,0-5.473,0.208-8.362,0.208c-2.568,0-2.315-0.208-3.217-0.208c-0.608,0-0.998,0.302-0.998,0.607
			c0,1.71,4.312-0.353,4.312,4.472v25.556c0,3.822-3.667,3.117-3.667,4.382c0,0.301,0.209,0.553,0.5,0.553
			c1.909,0,3.811-0.205,5.707-0.205c4.167,0,5.321,0.205,5.776,0.205c0.397,0,0.851,0.101,0.851-0.404
			c0-1.712-5.227-0.149-5.227-4.481V33.036c0-0.505-0.301-1.41,1.296-1.41c5.643,0,4.888-0.149,6.698,2.665l5.587,8.807
			c1.916,2.866,3.871,5.437,7.536,5.437c0.452,0,4.431,0,4.431-0.607c0-1.21-3.628,0.656-7.242-4.883L233.617,30.345L233.617,30.345
			z M223.713,16.486c0-1.957,1.053-1.856,2.864-1.856c4.938,0,9.603,2.058,9.603,8.188c0,6.223-4.819,7.131-6.992,7.131
			c-2.359,0-5.475,0.244-5.475-0.703V16.486L223.713,16.486z"/>
		<path class="st1" d="M248.286,16.124c-1.306-2.16-3.766-1.558-3.766-2.408c0-0.356,0.301-0.757,0.659-0.757
			c1.356,0,2.304,0.217,5.714,0.217c1.657,0,3.013-0.217,3.518-0.217c0.346,0,0.948,0.055,0.948,0.506
			c0,0.852-2.354,0.898-2.354,2.36c0,0.803,0.599,1.606,0.902,2.059l6.058,9.702c0.397,0.601,0.695,0.905,1,0.905
			c0.241,0,0.542-0.355,0.941-1.006l5.17-8.395c0.349-0.548,1.053-1.408,1.053-2.764c0-2.461-3.759-1.41-3.759-2.61
			c0-0.655,0.496-0.757,1.049-0.757c1.2,0,2.46,0.217,3.66,0.217c1.455,0,2.91-0.217,4.36-0.217c0.305,0,0.553,0.357,0.553,0.603
			c0,0.553-0.842,0.755-1.202,0.956c-1.345,0.803-2.005,2.21-2.809,3.468l-7.022,10.957c-0.803,1.255-1.202,1.508-1.202,2.263
			v12.311c0,4.375,4.119,2.966,4.119,4.525c0,0.451-0.457,0.502-1.154,0.502c-0.755,0-3.671-0.22-5.505-0.22
			c-2.249,0-4.059,0.22-4.509,0.22c-0.452,0-0.75-0.052-0.75-0.603c0-1.408,3.862-0.101,3.862-3.671V32.107
			c0-0.952-0.753-1.961-1.152-2.56L248.286,16.124L248.286,16.124z"/>
		<path class="st1" d="M169.909,43.897c0.248,4.218,3.961,2.358,3.961,4.114c0,0.504-0.661,0.504-1.202,0.504
			c-0.957,0-2.712-0.224-4.709-0.224c-1.549,0-3.16,0.224-4.341,0.224c-0.448,0-0.551-0.252-0.551-0.454
			c0-1.506,3.162-0.4,3.107-4.111l-1.365-19.465c0-1.256-0.25-1.957-0.551-1.957c-0.36,0-0.812,0.451-1.317,1.504l-10.388,21.173
			c-0.255,0.447-1.058,2.506-1.56,2.506c-0.505,0-0.851-1.104-1.01-1.455l-10.69-22.374c-0.157-0.403-0.406-0.553-0.61-0.553
			c-0.146,0-0.302,0.252-0.341,0.755l-1.467,17.608c-0.255,6.669,4.504,4.463,4.504,6.272c0,0.501-0.552,0.552-1.257,0.552
			c-0.651,0-2.907-0.224-4.384-0.224c-2.607,0-3.463,0.224-4.432,0.224c-0.359,0-0.507-0.252-0.507-0.604
			c0-1.709,3.207,0.351,3.557-4.873c0.61-8.195,1.21-13.523,1.21-18.848c0-11.81-3.887-8.997-3.887-10.707
			c0-0.449,0.396-0.552,0.85-0.552c0.901,0,1.806,0.218,2.761,0.218c0.901,0,1.794-0.218,2.677-0.218
			c0.708,0,0.807,0.852,1.057,1.405l11.985,25.531c0.56,1.056,0.753,1.508,1.113,1.508c0.25,0,0.748-1.053,1.558-2.714
			l11.976-24.024c0.289-0.552,0.698-1.759,1.287-1.706c0.507,0,2.107,0.218,2.35,0.218c1.159,0,1.606-0.218,2.409-0.218
			c0.303,0,0.507,0.299,0.507,0.601c0,1.609-4.023-0.55-3.816,5.431L169.909,43.897L169.909,43.897z"/>
		<path class="st1" d="M108.881,27.615c0,1.712-0.095,1.712,1.902,1.712h5.414c5.199,0,3.861-4.025,5.048-4.025
			c0.397,0,0.544,0.552,0.544,0.953c0,1.765-0.066,3.468-0.066,5.059c0,1.306,0.066,2.616,0.066,3.972
			c0,0.452-0.196,0.651-0.544,0.651c-1.544,0,0.15-4.423-4.045-4.423h-7.417c-1.056,0-0.902,0.858-0.902,1.61v9.25
			c0,2.965-0.396,4.17,3.811,4.17c11.555,0,13.258-5.177,13.909-5.177c0.349,0,0.399,0.504,0.399,0.602c0,1.809-1.3,3.568-2.5,4.878
			c-1.607,1.824-2.711,1.727-4.898,1.727c-3.81,0-7.611-0.309-11.42-0.211c-1.994,0.055-4.099,0.211-6.095,0.211
			c-0.457,0-0.755-0.108-0.755-0.511c0.095-0.609,0.602-0.51,2.207-1.322c1.298-0.601,1.405-2.009,1.405-4.369v-22.91
			c0-2.264,0-4.68-2.711-5.084c-0.397-0.101-1.503-0.198-1.503-0.779c0-0.402,0.299-0.603,1.753-0.603
			c9.45,0,12.056,0.213,14.165,0.213c0.999,0,5.594-0.213,7.151-0.213c0.397,0,0.496,0.501,0.496,1.101
			c0,5.581-0.699,5.982-0.999,5.982c-1.209,0-0.404-2.413-1.209-3.567c-1.292-1.709-6.49-1.411-8.497-1.411
			c-4.805,0-4.71-0.201-4.71,3.17V27.615L108.881,27.615z"/>
		<path class="st1" d="M114.821,64.45c0-1.98-2.321-1.415-2.294-2.009c0-0.198,0.142-0.311,0.368-0.311
			c0.482,0,1.274,0.112,2.151,0.112c0.876,0,1.669-0.112,2.009-0.112c0.17,0,0.285,0.085,0.285,0.283
			c0,0.454-1.387,0.056-1.444,1.698l-0.226,5.715c-0.114,2.943-1.613,5.263-5.715,5.263c-3.141,0-5.632-1.245-5.632-4.359v-6.137
			c0-1.134-0.254-1.472-0.989-1.726c-0.652-0.228-1.189-0.256-1.189-0.483c0-0.142,0.084-0.255,0.396-0.255
			c0.764,0,1.642,0.112,2.518,0.112c0.904,0,1.895-0.112,2.744-0.112c0.169,0,0.282,0.085,0.282,0.226
			c0,0.367-0.564,0.283-1.046,0.538c-0.481,0.227-0.651,0.679-0.651,1.443v5.999c0,2.346,1.244,3.846,3.648,3.846
			c3.85,0,4.783-2.036,4.783-5.714V64.45L114.821,64.45z"/>
		<path class="st1" d="M137.348,64.846c0-2.461-2.548-1.754-2.548-2.461c0-0.17,0.225-0.255,0.427-0.255
			c0.648,0,1.582,0.112,2.376,0.112c1.048,0,1.782-0.112,2.346-0.112c0.227,0,0.312,0.141,0.312,0.283c0,0.566-1.869,0-1.869,2.206
			v9.986c0,0.341-0.111,0.483-0.481,0.483c-0.225,0-0.425-0.115-0.903-0.622l-8.716-9.421l-0.17,0.025v7.669
			c0,2.038,2.405,1.188,2.405,2.038c0,0.169-0.197,0.196-0.509,0.196c-0.792,0-1.669-0.114-2.404-0.114
			c-0.764,0-1.528,0.114-2.207,0.114c-0.227,0-0.396-0.084-0.396-0.252c0-0.794,1.953,0,1.953-2.973V64.62
			c0-2.264-2.462-1.612-2.462-2.291c0-0.114,0.141-0.198,0.452-0.198c0.34,0,0.737,0.112,1.444,0.112
			c0.593,0,0.99-0.112,1.497-0.112c0.397,0,0.68,0.141,0.935,0.424l8.317,9.082l0.201-0.112V64.846L137.348,64.846z"/>
		<path class="st1" d="M149.376,63.969c0-1.5-2.18-1.075-2.18-1.584c0-0.142,0.085-0.255,0.397-0.255
			c0.764,0,1.641,0.112,2.519,0.112c0.902,0,1.893-0.112,2.744-0.112c0.17,0,0.28,0.085,0.28,0.226c0,0.735-1.696,0.085-1.696,1.444
			v9.336c0,1.5,2.205,1.074,2.205,1.586c0,0.139-0.083,0.252-0.397,0.252c-0.762,0-1.638-0.114-2.515-0.114
			c-0.906,0-1.895,0.114-2.747,0.114c-0.17,0-0.282-0.084-0.282-0.225c0-0.735,1.671-0.084,1.671-1.444V63.969L149.376,63.969z"/>
		<path class="st1" d="M161.235,63.912c-0.679-1.556-1.615-1.044-1.615-1.527c0-0.197,0.145-0.255,0.312-0.255
			c0.285,0,1.446,0.112,2.18,0.112c0.649,0,1.583-0.112,2.15-0.112c0.168,0,0.31,0.085,0.31,0.255c0,0.509-1.216,0.227-1.216,1.159
			c0,0.368,0.682,1.784,2.038,5.206c1.246,3.113,1.301,3.369,1.668,3.369c0.257,0,0.482-0.311,2.35-4.387
			c1.106-2.404,1.586-3.592,1.586-4.074c0-1.045-1.586-0.706-1.586-1.272c0-0.197,0.2-0.255,0.424-0.255
			c0.509,0,1.131,0.112,1.783,0.112c0.934,0,1.613-0.112,2.008-0.112c0.197,0,0.31,0.085,0.31,0.226
			c0,0.283-0.902,0.113-1.751,1.813l-4.33,8.655c-0.989,2.011-1.189,2.265-1.471,2.265c-0.312,0-0.397-0.172-0.737-0.963
			L161.235,63.912L161.235,63.912z"/>
		<path class="st1" d="M183.025,72.881c0,0.85,0.649,1.132,2.207,1.132c3.848,0,4.472-2.094,4.839-2.094
			c0.14,0,0.197,0.141,0.197,0.31c0,0.341-0.34,1.528-1.159,2.208c-0.512,0.422-0.934,0.536-2.18,0.536
			c-1.046,0-2.122-0.114-3.483-0.114c-1.326,0-2.799,0.114-3.759,0.114c-0.285,0-0.539-0.084-0.539-0.252c0-0.625,1.81,0,1.81-1.784
			v-8.741c0-1.642-1.898-1.189-1.898-1.783c0-0.199,0.17-0.283,0.454-0.283c1.161,0,2.972,0.112,4.722,0.112
			c1.985,0,4.472-0.112,4.814-0.112c0.17,0,0.282,0.169,0.282,0.283c0,0.338-0.027,0.792-0.027,2.461
			c0,0.34-0.117,0.453-0.312,0.453c-0.225,0-0.312-0.482-0.369-0.82c-0.168-1.019-1.216-1.416-3.366-1.416
			c-1.471,0-2.235,0-2.235,0.82v3.819h2.604c2.035,0,1.526-1.64,2.15-1.64c0.197,0,0.31,0.141,0.31,0.311
			c0,0.338-0.085,0.905-0.085,1.501c0,0.877,0.057,1.667,0.057,2.405c0,0.31-0.115,0.422-0.367,0.422c-0.539,0-0.06-1.95-2.008-1.95
			h-2.662V72.881L183.025,72.881z"/>
		<path class="st1" d="M200.23,68.184h1.983c2.093,0,3.027-0.763,3.027-2.375c0-2.633-2.714-2.887-3.763-2.887
			c-0.819,0-1.246,0.282-1.246,1.189V68.184L200.23,68.184z M200.23,73.136c0,1.5,2.18,1.074,2.18,1.586
			c0,0.139-0.085,0.252-0.397,0.252c-0.762,0-1.638-0.114-2.515-0.114c-0.909,0-1.898,0.114-2.747,0.114
			c-0.17,0-0.282-0.084-0.282-0.225c0-0.735,1.698-0.057,1.698-1.841v-8.401c0-2.209-2.04-1.386-2.04-2.009
			c0-0.283,0.23-0.368,0.539-0.368c0.594,0,1.388,0.112,2.407,0.112c1.528,0,2.572-0.112,3.506-0.112
			c3.681,0,4.727,1.839,4.727,3.422c0,2.095-1.613,2.632-2.774,2.999l3.394,4.556c0.594,0.794,0.991,0.933,1.613,0.933
			c0.482,0,0.624,0.056,0.624,0.285c0,0.311-0.367,0.536-0.934,0.536h-1.613c-0.397,0-0.961-0.083-1.441-0.764l-2.607-3.705
			c-0.877-1.301-1.072-1.413-1.753-1.413h-1.586V73.136L200.23,73.136z"/>
		<path class="st1" d="M221.063,62.385c0.562,0.198,0.989,0.367,1.244,0.367c0.649,0,0.425-0.396,0.679-0.396
			c0.112,0,0.17,0.113,0.17,0.311c0,0.396-0.057,1.105-0.057,1.697c0,0.482,0.057,1.502,0.057,1.928c0,0.252-0.17,0.311-0.282,0.311
			c-0.172,0-0.285-0.341-0.397-0.683c-0.342-0.989-1.076-3.11-3.536-3.11c-1.473,0-2.549,0.764-2.549,2.009
			c0,2.943,6.962,2.065,6.962,6.309c0,2.178-1.785,3.962-4.697,3.962c-1.386,0-2.32-0.199-3.366-0.734
			c-0.397-0.202-0.424-0.314-0.48-0.822c-0.087-0.877-0.537-2.322-0.537-2.885c0-0.229,0.14-0.397,0.335-0.397
			c0.257,0,0.369,0.168,0.541,0.764c0.337,1.161,1.726,3.282,3.873,3.282c1.531,0,2.744-0.793,2.744-2.321
			c0-3.17-6.957-2.236-6.957-6.31c0-1.81,1.469-3.65,4.13-3.65C219.762,62.016,220.466,62.187,221.063,62.385L221.063,62.385z"/>
		<path class="st1" d="M231.93,63.969c0-1.5-2.18-1.075-2.18-1.584c0-0.142,0.085-0.255,0.397-0.255
			c0.764,0,1.643,0.112,2.519,0.112c0.904,0,1.893-0.112,2.744-0.112c0.168,0,0.285,0.085,0.285,0.226
			c0,0.735-1.703,0.085-1.703,1.444v9.336c0,1.5,2.21,1.074,2.21,1.586c0,0.139-0.087,0.252-0.397,0.252
			c-0.762,0-1.643-0.114-2.517-0.114c-0.906,0-1.895,0.114-2.744,0.114c-0.17,0-0.282-0.084-0.282-0.225
			c0-0.735,1.668-0.084,1.668-1.444V63.969L231.93,63.969z"/>
		<path class="st1" d="M247.465,64.337c0-0.623-0.252-1.048-0.847-1.048h-2.292c-2.008,0-1.498,2.519-2.233,2.519
			c-0.259,0-0.342-0.143-0.342-0.34c0-0.228,0.482-2.435,0.482-3.056c0-0.171,0.168-0.226,0.369-0.226
			c0.507,0,1.978,0.169,3.674,0.169h3.766c0.737,0,1.583-0.028,2.405-0.057c0.792-0.027,1.526-0.111,1.95-0.111
			c0.255,0,0.372,0.084,0.372,0.34c0,0.254,0.31,2.319,0.31,2.519c0,0.195-0.085,0.31-0.369,0.31c-0.507,0-0.395-2.066-2.233-2.066
			h-2.095c-0.679,0-0.851,0.226-0.851,0.793v8.686c0,1.897,2.382,1.159,2.382,1.923c0,0.198-0.147,0.282-0.567,0.282
			c-0.824,0-1.613-0.114-2.717-0.114c-1.329,0-2.065,0.114-2.999,0.114c-0.229,0-0.342-0.114-0.342-0.282
			c0-0.678,2.178,0,2.178-1.811V64.337L247.465,64.337z"/>
		<g>
			<path class="st1" d="M265.381,69.429l-2.972-5.318c-0.934-1.671-2.093-1.217-2.093-1.671c0-0.142,0.112-0.311,0.31-0.311
				c0.764,0,1.671,0.112,2.52,0.112c0.679,0,1.329-0.112,1.868-0.112c0.312,0,0.395,0.112,0.395,0.255
				c0,0.396-1.016,0.255-1.016,1.045c0,0.682,2.432,4.642,2.545,4.642c0.227,0,2.49-3.452,2.49-4.33
				c0-1.244-1.726-0.905-1.726-1.329c0-0.199,0.142-0.283,0.285-0.283c0.452,0,1.528,0.112,2.29,0.112
				c0.482,0,1.246-0.112,1.813-0.112c0.197,0,0.255,0.085,0.255,0.226c0,0.367-0.792,0.171-1.56,1.444l-3.334,5.403v4.045
				c0,1.387,1.641,0.878,1.641,1.473c0,0.225-0.142,0.252-0.372,0.252c-0.48,0-1.413-0.114-2.203-0.114
				c-0.909,0-1.842,0.114-2.577,0.114c-0.168,0-0.337-0.027-0.337-0.225c0-0.597,1.781-0.256,1.781-1.98V69.429L265.381,69.429z"/>
			<path class="st1" d="M6.835,10.099l-2.514,2.642c-0.032,1.906-0.07,4.297-0.086,5.475C3.991,36.919,5.266,66.01,35.695,80.082
				c16.101-7.458,28.286-20.278,31.485-40.157c1.867-11.513,0.748-22.447,0.76-29.799L6.835,10.099L6.835,10.099z M35.838,77.939
				C2.874,62.691,6.826,28.636,6.84,12.714l58.341,0.059C65.166,28.698,68.836,62.761,35.838,77.939L35.838,77.939z"/>
		</g>
		<path class="st1" d="M23.376,51.903c-2.335,2.499-4.642,4.969-5.423,5.801c-0.177,0.19-0.194,0.389-0.09,0.506
			c0.162,0.177,0.381,0.403,0.468,0.419c0.145,0.03,0.249,0.095,0.497-0.173c0.102-0.116,2.672-2.596,5.704-5.517
			c0,0-0.306-0.156-0.573-0.391C23.693,52.304,23.376,51.903,23.376,51.903L23.376,51.903z"/>
		<path class="st1" d="M24.941,51.238c0.596,0.577,1.567,1.135,1.567,1.135l-0.536,0.514c-0.202,0.22-0.957-0.13-1.684-0.774
			c-0.725-0.651-1.15-1.36-0.948-1.58l0.594-0.539C23.935,49.994,24.347,50.668,24.941,51.238L24.941,51.238z"/>
		<path class="st1" d="M51.592,57.668c0.48-0.482,0.504-0.927,0.504-0.927l0.531,0.258c0.153,0.164,0.023,0.777-0.467,1.256
			c-0.49,0.479-1.154,0.643-1.311,0.476l-0.281-0.569C50.567,58.162,51.092,58.169,51.592,57.668L51.592,57.668z"/>
		<path class="st1" d="M50.792,56.812c0.314-0.286,0.42-0.663,0.42-0.663l0.342,0.235c0.116,0.119,0.013,0.506-0.346,0.852
			c-0.357,0.353-0.843,0.473-0.958,0.349l-0.201-0.375C50.049,57.21,50.479,57.095,50.792,56.812L50.792,56.812z"/>
		<path class="st1" d="M52.417,30.182l-0.618,0.548c-0.847,0.326-2.777-1.15-4.294-2.478c-1.014-0.889-3.05-3.134-2.472-4.042
			l0.257-0.26c-0.184-0.109-0.34-0.205-0.46-0.268c-0.168-0.091-0.394-0.155-0.649-0.123c-0.24,0.03-0.436,0.13-0.455,0.329
			c-0.044,0.403,0.191,0.941,0.515,1.575c0.32,0.638,1.588,2.477,4.136,4.508c1.163,0.93,2.497,1.502,3.46,1.855
			c0.172,0.063,0.776,0.188,1.041-0.072c0.268-0.266-0.03-0.734-0.234-1.185C52.59,30.45,52.51,30.319,52.417,30.182L52.417,30.182z
			"/>
		<path class="st1" d="M27.8,31.733c-2.714-2.696-3.747-3.324-4.967-3.848c-0.634-0.274-1.268-0.48-1.454-0.406
			c-0.535,0.2-1.332,0.552-1.828,0.984c-0.357,0.321-0.324,0.472-0.128,0.574c0.195,0.109,1.573,0.406,2.826,1.077
			c2.202,1.174,6.329,4.048,15.327,13.35c4.572,4.726,11.768,12.041,11.768,12.041l0.184-0.147c0,0-10.47-11.739-18.638-20.426
			C29.729,33.698,28.71,32.642,27.8,31.733L27.8,31.733z M25.958,20.672c-0.002,0.187-0.002,0.4-0.002,0.619
			c0.001,0.618,0.565,5.74,3.522,9.434c2.548,3.185,10.256,12.368,11.482,13.827c1.152,1.365,8.708,10.204,9.66,11.326
			c0.039,0.047,0.091,0.108,0.098,0.118c0.003,0.008-0.104,0.24-0.327,0.423c-0.243,0.188-0.497,0.209-0.497,0.209
			c-0.03-0.021-0.2-0.2-0.232-0.233c-0.274-0.32-13.328-13.379-14.603-14.609c-1.273-1.228-7.992-7.739-10.769-9.515
			c-2.402-1.536-3.494-2.394-6.13-2.617c0,0-1.876-0.068-2.002-0.161c-0.024-0.015,0.011-0.1,0.056-0.118
			c1.162-0.474,3.701-1.952,5.701-3.857c2.813-2.665,3.706-4.532,3.846-4.821C25.795,20.625,25.959,20.608,25.958,20.672
			L25.958,20.672z"/>
		<path class="st1" d="M20.573,24.629c0.295-0.26,1.385-1.365,2.304-2.443c0.964-1.137,1.473-2.149,1.473-2.149
			s0.146-0.32,0.122-0.539c-0.021-0.171-0.198-0.24-0.265-0.299c-0.103-0.092-2.454,0.972-3.491,1.941
			c-0.126,0.118-0.35,0.593-0.455,0.942c-0.091,0.296,0.69,1.128,0.174,2.394C20.363,24.649,20.53,24.669,20.573,24.629
			L20.573,24.629z M19.741,26.158c-1.193,0.999-2.682,1.919-4.002,2.455c-0.832,0.34-2.004-0.038-1.161-1.642
			c0.256-0.485,0.62-1.091,1.12-1.755c1.569-2.082,4.38-4.655,7.108-6.129c0.828-0.449,1.592-0.738,1.938-0.717
			c0.671,0.04,0.711,0.608,0.588,1.145C25.06,20.697,23.093,23.344,19.741,26.158L19.741,26.158z"/>
		<path class="st1" d="M34.857,42.535c-0.547,0.517-9.033,8.658-9.033,8.658c0.123,0.122,0.483,0.382,0.483,0.382
			s7.788-7.484,8.37-8.027c0.157-0.145,0.501-0.464,0.626-0.57L34.857,42.535L34.857,42.535z"/>
		<path class="st1" d="M50.851,32.5c0.119-0.012,0.248-0.021,0.357-0.026c0.126-0.008,0.295-0.038,0.322-0.065
			c0.072-0.054,0.12-0.135-0.021-0.138c-0.403-0.013-1.12-0.215-1.94-0.6c-0.501,0.133-1.319,0.355-2.285,0.785
			c-1.224,0.546-3.904,2.152-9.39,7.183l0.43,0.501c1.902-1.716,4.444-3.961,5.826-4.866c2.45-1.597,4.224-2.314,5.413-2.596
			C49.915,32.594,50.446,32.531,50.851,32.5L50.851,32.5z"/>
		<path class="st1" d="M45.51,28.508c-1.508-1.569-1.985-2.695-2.228-3.523c-0.008-0.031-0.018-0.059-0.026-0.079
			c-0.008-0.012-0.072-0.027-0.091,0.037c-0.009,0.031-0.02,0.07-0.022,0.104c-0.133,1.618,0.014,2.297-0.667,3.951
			c-0.571,1.381-1.575,3.141-2.957,4.746c-0.797,0.932-2.15,2.459-3.394,3.879l0.874,1.034c0.083-0.099,0.363-0.39,0.679-0.731
			c4.183-4.472,7.825-7.245,9.13-8.202C46.338,29.33,45.901,28.914,45.51,28.508L45.51,28.508z"/>
		<path class="st1" d="M33.111,40.934c-1.769,1.995-3.542,3.958-4.057,4.53c-0.436,0.487-4.295,4.637-4.295,4.637
			s0.091,0.166,0.213,0.301c0.12,0.134,0.324,0.315,0.324,0.315s8.095-8.31,8.709-8.949L33.111,40.934L33.111,40.934z"/>
		<path class="st1" d="M46.986,23.014c0-0.063,0.006-0.119,0.01-0.181c-0.423-0.116-0.745-0.095-0.914,0.086
			c-0.53,0.574,0.648,2.524,2.628,4.361c1.98,1.835,4.018,2.859,4.547,2.285c0.212-0.229,0.145-0.683-0.134-1.263
			C50.244,28.636,46.986,24.856,46.986,23.014L46.986,23.014z"/>
		<path class="st1" d="M55.144,26.369c-0.115,0.215-0.549,0.763-1.212,1.057c-0.734,0.32-1.712,0.371-2.215,0.212
			c-2.28-0.701-3.646-3.025-3.646-3.025c-1.794-2.902,0.612-4.141,0.812-4.182c0,0-0.255,0.949-0.093,1.596
			c0.138,0.581,0.483,1.027,0.59,1.348c0.224,0.639-0.083,1.082-0.231,1.291c-0.081,0.111,0.132,0.049,0.178,0.02
			c0.036-0.027,0.06-0.06,0.14-0.115c0.33-0.248,0.631-0.632,0.536-1.036c-0.209-0.896-0.854-1.458-0.091-3.31
			c0.467-1.123,1.548-2.238,1.652-2.304c0.169-0.116,0.279-0.262,0.285-0.142c0.002,0.123,0.198,0.955,0.298,1.495
			c0.098,0.538,0.725,1.636,0.586,3.156c-0.134,1.52-2.622,3.186-2.964,3.293c-0.112,0.037-0.287,0.14-0.333,0.18
			c-0.088,0.086,0.039,0.104,0.099,0.116c0.132,0.025,1.19-0.228,2.038-0.82c0.71-0.496,1.391-1.243,1.623-1.684
			c0.436-0.817,0.646-1.949,0.687-2.055c0.071-0.177,0.146-0.17,0.166-0.077c0.024,0.093,0.202,0.76,0.267,1.098
			c0.037,0.188,0.146,0.716,0.149,1.296c0.005,1.142-0.325,1.672-0.999,2.181c-0.382,0.294-0.801,0.403-1.259,0.449l-0.161,0.026
			c-0.063,0.013-0.124,0.031,0.017,0.101c0.037,0.018,0.096,0.034,0.16,0.068c0.381,0.17,1.176,0.153,1.691-0.165
			c0.233-0.143,0.548-0.368,0.975-0.785c0.158-0.151,0.377-0.439,0.399-0.344C55.321,25.44,55.364,25.956,55.144,26.369
			L55.144,26.369z M55.914,23.752c-0.279,0.321-0.756,1.07-1.044,1.325c0.311-0.274,0.484-0.941,0.149-2.69
			c-0.236-1.224-0.387-1.629-0.55-2.034c-0.091-0.229-0.229-0.171-0.393,0.005c-0.156,0.176-0.524,0.812-0.534,0.848
			c-0.037,0.15,0.002,0.012-0.571-1.761c-0.36-1.126-0.513-1.91-0.497-2.305c0.009-0.211,0.02-0.43,0.029-0.586
			c0.007-0.137-0.071-0.137-0.428,0.018c-0.192,0.081-1.709,1.138-2.336,2.729c-0.363,0.918-0.39,1.675-0.445,1.215
			c-0.11-0.902-0.094-0.891-0.184-0.86c-0.5,0.164-2.256,0.96-2.26,3.332c0,2.02,3.798,6.301,6.883,5.33
			c0,0,2.341-0.446,2.383-2.555C56.161,23.649,55.914,23.752,55.914,23.752L55.914,23.752z"/>
	</g>
</g>
</svg>
